<svg width="1584" height="322" viewBox="0 0 1584 322" fill="none" xmlns="http://www.w3.org/2000/svg">
<rect width="1584" height="322" fill="#FFFAEB"/>
<path d="M423.232 183V178.776C425.792 178.776 427.755 178.093 429.12 176.728C430.485 175.363 431.595 173.485 432.448 171.096C433.387 168.707 434.453 165.933 435.648 162.776L462.016 90.968H465.088L493.632 163.8C494.315 165.592 495.083 167.896 495.936 170.712C496.789 173.528 497.131 175.917 496.96 177.88C498.411 177.795 499.861 177.709 501.312 177.624C502.763 177.539 504.213 177.453 505.664 177.368V183H476.352V178.776C479.595 178.691 481.728 177.965 482.752 176.6C483.776 175.235 484.16 173.613 483.904 171.736C483.648 169.859 483.221 168.152 482.624 166.616L478.144 154.584L444.864 155.352L440.384 169.048C439.787 171.096 439.232 172.717 438.72 173.912C438.293 175.107 437.781 176.429 437.184 177.88C438.891 177.795 440.555 177.709 442.176 177.624C443.883 177.539 445.547 177.453 447.168 177.368V183H423.232ZM446.784 149.848H476.352L467.264 125.4C466.325 122.755 465.344 120.152 464.32 117.592C463.381 114.947 462.443 112.301 461.504 109.656H461.248C460.395 112.045 459.499 114.435 458.56 116.824C457.707 119.213 456.811 121.645 455.872 124.12L446.784 149.848ZM509.757 179.16C512.402 179.16 514.237 178.52 515.261 177.24C516.285 175.875 516.882 174.04 517.053 171.736C517.224 169.347 517.309 166.616 517.309 163.544V134.36C517.309 132.995 517.309 131.629 517.309 130.264C517.394 128.899 517.565 127.491 517.821 126.04C516.285 126.125 514.749 126.211 513.213 126.296C511.762 126.296 510.269 126.339 508.733 126.424V121.176H512.701C516.37 121.176 518.888 120.835 520.253 120.152C521.704 119.384 522.898 118.573 523.837 117.72H527.549C527.72 119.085 527.848 120.792 527.933 122.84C528.018 124.803 528.104 127.32 528.189 130.392C529.469 128.259 531.218 126.168 533.437 124.12C535.656 122.072 538.13 120.365 540.861 119C543.677 117.635 546.621 116.952 549.693 116.952C552.082 116.952 554.173 117.592 555.965 118.872C557.757 120.152 558.653 122.2 558.653 125.016C558.653 125.699 558.44 126.552 558.013 127.576C557.586 128.515 556.904 129.368 555.965 130.136C555.026 130.819 553.789 131.16 552.253 131.16C550.376 131.075 548.882 130.349 547.773 128.984C546.664 127.533 546.237 125.869 546.493 123.992C544.36 123.907 542.141 124.461 539.837 125.656C537.618 126.851 535.528 128.515 533.565 130.648C531.602 132.696 529.853 135.128 528.317 137.944L528.445 169.432C528.445 171.139 528.402 172.675 528.317 174.04C528.317 175.32 528.189 176.685 527.933 178.136C529.298 178.051 530.621 178.008 531.901 178.008C533.266 177.923 534.632 177.837 535.997 177.752V183H509.757V179.16ZM573.196 116.312C573.196 106.84 574.903 99.3733 578.316 93.912C581.815 88.4507 587.788 85.72 596.236 85.72C598.113 85.72 600.076 86.0613 602.124 86.744C604.257 87.3413 606.092 88.3653 607.628 89.816C609.164 91.1813 609.932 92.9733 609.932 95.192C609.932 96.8133 609.463 98.1787 608.524 99.288C607.671 100.397 606.391 100.952 604.684 100.952C602.636 101.037 601.185 100.44 600.332 99.16C599.564 97.7947 599.18 96.6427 599.18 95.704C599.18 95.192 599.223 94.68 599.308 94.168C599.393 93.656 599.564 93.1013 599.82 92.504C599.223 91.736 598.369 91.1813 597.26 90.84C596.236 90.4987 595.255 90.328 594.316 90.328C591.671 90.328 589.623 91.096 588.172 92.632C586.721 94.168 585.697 96.088 585.1 98.392C584.503 100.696 584.204 103.085 584.204 105.56V119H601.484V123.992L584.204 124.376L584.332 169.432C584.332 171.139 584.289 172.675 584.204 174.04C584.204 175.32 584.076 176.685 583.82 178.136C585.185 178.051 586.508 178.008 587.788 178.008C589.153 177.923 590.519 177.837 591.884 177.752V183H565.772V179.16C568.417 179.16 570.252 178.52 571.276 177.24C572.3 175.875 572.897 174.04 573.068 171.736C573.239 169.347 573.324 166.616 573.324 163.544L573.196 124.504L562.7 124.76V119H573.196V116.312ZM635.39 185.048C630.782 185.048 626.899 184.195 623.742 182.488C620.67 180.781 618.323 177.88 616.702 173.784C615.166 169.688 614.398 164.141 614.398 157.144V134.36C614.398 132.995 614.398 131.629 614.398 130.264C614.483 128.899 614.654 127.491 614.91 126.04C613.459 126.125 611.966 126.211 610.43 126.296C608.979 126.296 607.529 126.339 606.078 126.424V121.176H610.046C613.715 121.176 616.361 120.835 617.982 120.152C619.689 119.384 621.011 118.573 621.95 117.72H625.662V156.76C625.662 164.099 626.686 169.603 628.734 173.272C630.867 176.856 634.451 178.605 639.486 178.52C642.729 178.435 645.801 177.453 648.702 175.576C651.689 173.613 654.078 171.309 655.87 168.664V135.768C655.87 133.72 655.913 131.971 655.998 130.52C656.083 128.984 656.254 127.491 656.51 126.04C654.974 126.125 653.438 126.211 651.902 126.296C650.366 126.296 648.83 126.339 647.294 126.424V121.176H651.262C654.931 121.176 657.577 120.835 659.198 120.152C660.905 119.384 662.227 118.573 663.166 117.72H666.878L666.75 166.104C666.75 167.469 666.707 169.389 666.622 171.864C666.537 174.339 666.409 176.429 666.238 178.136C667.774 178.051 669.31 177.965 670.846 177.88C672.382 177.795 673.918 177.709 675.454 177.624V183H657.15C656.894 181.549 656.681 180.184 656.51 178.904C656.425 177.624 656.339 176.429 656.254 175.32C653.609 177.965 650.409 180.269 646.654 182.232C642.899 184.109 639.145 185.048 635.39 185.048ZM684.757 179.16C687.402 179.16 689.237 178.52 690.261 177.24C691.285 175.875 691.882 174.04 692.053 171.736C692.224 169.347 692.309 166.616 692.309 163.544V134.36C692.309 132.995 692.309 131.629 692.309 130.264C692.394 128.899 692.565 127.491 692.821 126.04C691.285 126.125 689.749 126.211 688.213 126.296C686.762 126.296 685.269 126.339 683.733 126.424V121.176H687.701C691.37 121.176 693.888 120.835 695.253 120.152C696.704 119.384 697.898 118.573 698.837 117.72H702.549C702.72 119.085 702.848 120.792 702.933 122.84C703.018 124.803 703.104 127.32 703.189 130.392C704.469 128.259 706.218 126.168 708.437 124.12C710.656 122.072 713.13 120.365 715.861 119C718.677 117.635 721.621 116.952 724.693 116.952C727.082 116.952 729.173 117.592 730.965 118.872C732.757 120.152 733.653 122.2 733.653 125.016C733.653 125.699 733.44 126.552 733.013 127.576C732.586 128.515 731.904 129.368 730.965 130.136C730.026 130.819 728.789 131.16 727.253 131.16C725.376 131.075 723.882 130.349 722.773 128.984C721.664 127.533 721.237 125.869 721.493 123.992C719.36 123.907 717.141 124.461 714.837 125.656C712.618 126.851 710.528 128.515 708.565 130.648C706.602 132.696 704.853 135.128 703.317 137.944L703.445 169.432C703.445 171.139 703.402 172.675 703.317 174.04C703.317 175.32 703.189 176.685 702.933 178.136C704.298 178.051 705.621 178.008 706.901 178.008C708.266 177.923 709.632 177.837 710.997 177.752V183H684.757V179.16Z" fill="black"/>
<path d="M423.784 240V238.812C424.504 238.812 425.056 238.62 425.44 238.236C425.824 237.852 426.136 237.324 426.376 236.652C426.64 235.98 426.94 235.2 427.276 234.312L434.692 214.116H435.556L443.584 234.6C443.776 235.104 443.992 235.752 444.232 236.544C444.472 237.336 444.568 238.008 444.52 238.56C444.928 238.536 445.336 238.512 445.744 238.488C446.152 238.464 446.56 238.44 446.968 238.416V240H438.724V238.812C439.636 238.788 440.236 238.584 440.524 238.2C440.812 237.816 440.92 237.36 440.848 236.832C440.776 236.304 440.656 235.824 440.488 235.392L439.228 232.008L429.868 232.224L428.608 236.076C428.44 236.652 428.284 237.108 428.14 237.444C428.02 237.78 427.876 238.152 427.708 238.56C428.188 238.536 428.656 238.512 429.112 238.488C429.592 238.464 430.06 238.44 430.516 238.416V240H423.784ZM430.408 230.676H438.724L436.168 223.8C435.904 223.056 435.628 222.324 435.34 221.604C435.076 220.86 434.812 220.116 434.548 219.372H434.476C434.236 220.044 433.984 220.716 433.72 221.388C433.48 222.06 433.228 222.744 432.964 223.44L430.408 230.676ZM457.972 240V238.812C458.884 238.764 459.508 238.56 459.844 238.2C460.18 237.816 460.36 237.3 460.384 236.652C460.432 235.98 460.456 235.224 460.456 234.384V218.832C460.456 218.352 460.468 217.896 460.492 217.464C460.516 217.008 460.54 216.6 460.564 216.24C460.132 216.264 459.7 216.288 459.268 216.312C458.836 216.336 458.404 216.36 457.972 216.384V214.8C459.316 214.776 460.672 214.752 462.04 214.728C463.432 214.704 464.824 214.716 466.216 214.764C468.544 214.788 470.416 215.064 471.832 215.592C473.272 216.096 474.328 216.828 475 217.788C475.672 218.724 476.008 219.864 476.008 221.208C476.032 222.144 475.852 223.104 475.468 224.088C475.108 225.048 474.436 225.912 473.452 226.68C472.492 227.448 471.1 228.024 469.276 228.408C469.756 228.744 470.176 229.176 470.536 229.704C470.896 230.232 471.304 230.844 471.76 231.54L474.208 235.392C474.616 236.04 475.012 236.628 475.396 237.156C475.78 237.66 476.224 238.068 476.728 238.38C477.232 238.668 477.856 238.812 478.6 238.812V240H474.064C473.368 239.376 472.78 238.752 472.3 238.128C471.844 237.504 471.364 236.796 470.86 236.004L468.448 232.152C468.136 231.648 467.776 231.072 467.368 230.424C466.984 229.752 466.54 229.188 466.036 228.732C465.652 228.756 465.244 228.768 464.812 228.768C464.404 228.768 463.996 228.756 463.588 228.732V235.716C463.588 236.364 463.576 236.928 463.552 237.408C463.552 237.864 463.528 238.248 463.48 238.56C463.768 238.536 464.056 238.524 464.344 238.524C464.632 238.5 464.92 238.476 465.208 238.452C465.496 238.428 465.784 238.416 466.072 238.416V240H457.972ZM465.82 227.4C467.14 227.352 468.292 227.136 469.276 226.752C470.284 226.368 471.076 225.756 471.652 224.916C472.228 224.076 472.516 222.972 472.516 221.604C472.516 220.692 472.384 219.9 472.12 219.228C471.88 218.532 471.496 217.956 470.968 217.5C470.44 217.044 469.768 216.708 468.952 216.492C468.136 216.252 467.176 216.132 466.072 216.132C465.184 216.132 464.56 216.312 464.2 216.672C463.864 217.032 463.672 217.536 463.624 218.184C463.6 218.808 463.588 219.552 463.588 220.416V227.328C463.972 227.352 464.332 227.376 464.668 227.4C465.028 227.424 465.412 227.424 465.82 227.4ZM487.778 240.576C486.482 240.576 485.39 240.336 484.502 239.856C483.638 239.376 482.978 238.56 482.522 237.408C482.09 236.256 481.874 234.696 481.874 232.728V226.32C481.874 225.936 481.874 225.552 481.874 225.168C481.898 224.784 481.946 224.388 482.018 223.98C481.61 224.004 481.19 224.028 480.758 224.052C480.35 224.052 479.942 224.064 479.534 224.088V222.612H480.65C481.682 222.612 482.426 222.516 482.882 222.324C483.362 222.108 483.734 221.88 483.998 221.64H485.042V232.62C485.042 234.684 485.33 236.232 485.906 237.264C486.506 238.272 487.514 238.764 488.93 238.74C489.842 238.716 490.706 238.44 491.522 237.912C492.362 237.36 493.034 236.712 493.538 235.968V226.716C493.538 226.14 493.55 225.648 493.574 225.24C493.598 224.808 493.646 224.388 493.718 223.98C493.286 224.004 492.854 224.028 492.422 224.052C491.99 224.052 491.558 224.064 491.126 224.088V222.612H492.242C493.274 222.612 494.018 222.516 494.474 222.324C494.954 222.108 495.326 221.88 495.59 221.64H496.634L496.598 235.248C496.598 235.632 496.586 236.172 496.562 236.868C496.538 237.564 496.502 238.152 496.454 238.632C496.886 238.608 497.318 238.584 497.75 238.56C498.182 238.536 498.614 238.512 499.046 238.488V240H493.898C493.826 239.592 493.766 239.208 493.718 238.848C493.694 238.488 493.67 238.152 493.646 237.84C492.902 238.584 492.002 239.232 490.946 239.784C489.89 240.312 488.834 240.576 487.778 240.576ZM509.042 240.576C507.842 240.576 506.774 240.408 505.838 240.072C504.902 239.76 504.134 239.4 503.534 238.992L503.678 240.252H502.166L501.95 234.06H503.066C503.114 235.044 503.39 235.932 503.894 236.724C504.398 237.492 505.046 238.092 505.838 238.524C506.63 238.956 507.482 239.172 508.394 239.172C509.018 239.172 509.63 239.076 510.23 238.884C510.83 238.668 511.334 238.356 511.742 237.948C512.15 237.516 512.354 236.976 512.354 236.328C512.354 235.656 512.15 235.104 511.742 234.672C511.358 234.216 510.842 233.82 510.194 233.484C509.546 233.148 508.85 232.836 508.106 232.548C507.386 232.26 506.666 231.96 505.946 231.648C505.226 231.336 504.554 230.964 503.93 230.532C503.33 230.1 502.85 229.572 502.49 228.948C502.13 228.324 501.95 227.556 501.95 226.644C501.95 226.14 502.046 225.588 502.238 224.988C502.43 224.388 502.754 223.824 503.21 223.296C503.666 222.744 504.29 222.3 505.082 221.964C505.874 221.604 506.882 221.424 508.106 221.424C508.754 221.424 509.474 221.532 510.266 221.748C511.058 221.964 511.826 222.372 512.57 222.972L512.498 221.604H514.01V227.904H512.858C512.81 227.064 512.618 226.26 512.282 225.492C511.946 224.7 511.454 224.052 510.806 223.548C510.158 223.02 509.318 222.756 508.286 222.756C507.182 222.756 506.318 223.032 505.694 223.584C505.07 224.136 504.758 224.772 504.758 225.492C504.758 226.236 504.986 226.86 505.442 227.364C505.922 227.844 506.534 228.264 507.278 228.624C508.022 228.984 508.814 229.332 509.654 229.668C510.566 230.052 511.454 230.472 512.318 230.928C513.182 231.384 513.89 231.96 514.442 232.656C514.994 233.328 515.27 234.204 515.27 235.284C515.27 236.484 514.958 237.48 514.334 238.272C513.734 239.064 512.954 239.64 511.994 240C511.058 240.384 510.074 240.576 509.042 240.576ZM525.094 240.576C524.542 240.576 523.978 240.492 523.402 240.324C522.826 240.18 522.286 239.88 521.782 239.424C521.302 238.968 520.918 238.308 520.63 237.444C520.342 236.556 520.198 235.392 520.198 233.952L520.27 223.512L517.498 223.548V222C518.122 221.976 518.758 221.748 519.406 221.316C520.054 220.86 520.63 220.248 521.134 219.48C521.662 218.712 522.022 217.872 522.214 216.96H523.438V222H529.486V223.404L523.438 223.476L523.366 233.484C523.366 234.564 523.45 235.488 523.618 236.256C523.81 237 524.11 237.564 524.518 237.948C524.926 238.332 525.454 238.524 526.102 238.524C526.774 238.524 527.398 238.332 527.974 237.948C528.574 237.564 529.102 237.036 529.558 236.364L530.53 237.156C530.002 237.948 529.474 238.572 528.946 239.028C528.442 239.484 527.95 239.82 527.47 240.036C526.99 240.276 526.546 240.42 526.138 240.468C525.73 240.54 525.382 240.576 525.094 240.576ZM542.101 240V238.812C543.013 238.764 543.637 238.56 543.973 238.2C544.309 237.816 544.489 237.3 544.513 236.652C544.561 235.98 544.585 235.224 544.585 234.384V218.832C544.585 218.352 544.597 217.896 544.621 217.464C544.645 217.008 544.669 216.6 544.693 216.24C544.261 216.264 543.829 216.288 543.397 216.312C542.965 216.336 542.533 216.36 542.101 216.384V214.8H558.805L558.985 221.1H557.797C557.797 219.684 557.569 218.616 557.113 217.896C556.657 217.152 556.057 216.66 555.313 216.42C554.569 216.156 553.741 216.036 552.829 216.06L550.201 216.132C549.313 216.156 548.701 216.372 548.365 216.78C548.029 217.164 547.837 217.68 547.789 218.328C547.741 218.976 547.717 219.72 547.717 220.56V226.752L553.981 226.788L553.729 223.656H555.313V231.252H554.161C554.161 230.172 554.005 229.404 553.693 228.948C553.405 228.492 552.949 228.216 552.325 228.12C551.701 228.024 550.885 228 549.877 228.048L547.717 228.156V235.716C547.717 236.364 547.705 236.928 547.681 237.408C547.681 237.864 547.657 238.248 547.609 238.56C548.017 238.536 548.425 238.524 548.833 238.524C549.241 238.5 549.649 238.476 550.057 238.452C550.465 238.428 550.873 238.416 551.281 238.416V240H542.101ZM561.076 238.92C561.82 238.92 562.336 238.74 562.624 238.38C562.912 237.996 563.08 237.48 563.128 236.832C563.176 236.16 563.2 235.392 563.2 234.528V226.32C563.2 225.936 563.2 225.552 563.2 225.168C563.224 224.784 563.272 224.388 563.344 223.98C562.912 224.004 562.48 224.028 562.048 224.052C561.64 224.052 561.22 224.064 560.788 224.088V222.612H561.904C562.936 222.612 563.644 222.516 564.028 222.324C564.436 222.108 564.772 221.88 565.036 221.64H566.08C566.128 222.024 566.164 222.504 566.188 223.08C566.212 223.632 566.236 224.34 566.26 225.204C566.62 224.604 567.112 224.016 567.736 223.44C568.36 222.864 569.056 222.384 569.824 222C570.616 221.616 571.444 221.424 572.308 221.424C572.98 221.424 573.568 221.604 574.072 221.964C574.576 222.324 574.828 222.9 574.828 223.692C574.828 223.884 574.768 224.124 574.648 224.412C574.528 224.676 574.336 224.916 574.072 225.132C573.808 225.324 573.46 225.42 573.028 225.42C572.5 225.396 572.08 225.192 571.768 224.808C571.456 224.4 571.336 223.932 571.408 223.404C570.808 223.38 570.184 223.536 569.536 223.872C568.912 224.208 568.324 224.676 567.772 225.276C567.22 225.852 566.728 226.536 566.296 227.328L566.332 236.184C566.332 236.664 566.32 237.096 566.296 237.48C566.296 237.84 566.26 238.224 566.188 238.632C566.572 238.608 566.944 238.596 567.304 238.596C567.688 238.572 568.072 238.548 568.456 238.524V240H561.076V238.92ZM587.348 240C587.276 239.592 587.228 239.232 587.204 238.92C587.18 238.608 587.144 238.284 587.096 237.948C586.28 238.764 585.392 239.412 584.432 239.892C583.496 240.348 582.5 240.576 581.444 240.576C579.62 240.576 578.264 240.168 577.376 239.352C576.488 238.512 576.044 237.492 576.044 236.292C576.044 235.188 576.38 234.24 577.052 233.448C577.748 232.632 578.636 231.972 579.716 231.468C580.82 230.94 582.008 230.556 583.28 230.316C584.576 230.052 585.824 229.932 587.024 229.956V227.724C587.024 226.884 586.952 226.092 586.808 225.348C586.664 224.604 586.352 223.992 585.872 223.512C585.392 223.032 584.624 222.78 583.568 222.756C582.872 222.732 582.152 222.864 581.408 223.152C580.688 223.44 580.16 223.932 579.824 224.628C580.016 224.82 580.136 225.048 580.184 225.312C580.256 225.552 580.292 225.78 580.292 225.996C580.292 226.284 580.172 226.62 579.932 227.004C579.692 227.364 579.272 227.532 578.672 227.508C578.168 227.508 577.784 227.34 577.52 227.004C577.256 226.644 577.124 226.224 577.124 225.744C577.124 224.928 577.424 224.196 578.024 223.548C578.648 222.9 579.5 222.384 580.58 222C581.66 221.616 582.884 221.424 584.252 221.424C586.268 221.424 587.756 221.964 588.716 223.044C589.676 224.1 590.144 225.78 590.12 228.084C590.12 228.972 590.12 229.872 590.12 230.784C590.12 231.672 590.108 232.572 590.084 233.484C590.084 234.372 590.084 235.272 590.084 236.184C590.084 236.568 590.072 236.952 590.048 237.336C590.024 237.72 589.988 238.152 589.94 238.632C590.372 238.608 590.792 238.584 591.2 238.56C591.632 238.536 592.064 238.512 592.496 238.488V240H587.348ZM587.024 231.18C586.208 231.204 585.344 231.312 584.432 231.504C583.544 231.672 582.716 231.936 581.948 232.296C581.204 232.656 580.592 233.136 580.112 233.736C579.656 234.312 579.44 235.02 579.464 235.86C579.512 236.748 579.8 237.42 580.328 237.876C580.88 238.308 581.528 238.524 582.272 238.524C583.256 238.524 584.108 238.344 584.828 237.984C585.572 237.6 586.304 237.072 587.024 236.4C587 236.136 586.988 235.848 586.988 235.536C586.988 235.224 586.988 234.9 586.988 234.564C586.988 234.444 586.988 234.06 586.988 233.412C587.012 232.764 587.024 232.02 587.024 231.18ZM594.967 240V238.92C595.711 238.92 596.227 238.74 596.515 238.38C596.803 237.996 596.971 237.48 597.019 236.832C597.067 236.16 597.091 235.392 597.091 234.528V226.32C597.091 225.936 597.091 225.552 597.091 225.168C597.115 224.784 597.163 224.388 597.235 223.98C596.803 224.004 596.371 224.028 595.939 224.052C595.531 224.076 595.111 224.1 594.679 224.124V222.612C595.735 222.612 596.527 222.564 597.055 222.468C597.607 222.372 598.015 222.252 598.279 222.108C598.543 221.964 598.759 221.808 598.927 221.64H599.971C600.019 221.88 600.043 222.156 600.043 222.468C600.067 222.78 600.091 223.14 600.115 223.548C600.835 222.924 601.663 222.42 602.599 222.036C603.535 221.628 604.471 221.424 605.407 221.424C606.607 221.424 607.615 221.64 608.431 222.072C609.247 222.504 609.883 223.092 610.339 223.836C611.155 223.164 612.091 222.6 613.147 222.144C614.227 221.664 615.283 221.424 616.315 221.424C618.403 221.424 619.939 222.06 620.923 223.332C621.907 224.58 622.375 226.632 622.327 229.488L622.291 236.184C622.291 236.664 622.279 237.096 622.255 237.48C622.255 237.84 622.219 238.224 622.147 238.632C622.531 238.608 622.903 238.596 623.263 238.596C623.647 238.572 624.031 238.548 624.415 238.524V240H617.071V238.92C617.815 238.92 618.331 238.74 618.619 238.38C618.907 237.996 619.075 237.48 619.123 236.832C619.171 236.16 619.195 235.392 619.195 234.528V229.488C619.195 227.424 618.859 225.876 618.187 224.844C617.539 223.812 616.507 223.308 615.091 223.332C614.347 223.332 613.603 223.5 612.859 223.836C612.115 224.172 611.467 224.592 610.915 225.096C611.035 225.48 611.119 225.9 611.167 226.356C611.239 226.788 611.275 227.244 611.275 227.724C611.251 229.116 611.239 230.52 611.239 231.936C611.239 233.352 611.227 234.768 611.203 236.184C611.203 236.664 611.191 237.096 611.167 237.48C611.167 237.84 611.131 238.224 611.059 238.632C611.443 238.608 611.815 238.596 612.175 238.596C612.559 238.572 612.943 238.548 613.327 238.524V240H605.983V238.92C606.727 238.92 607.231 238.74 607.495 238.38C607.783 237.996 607.951 237.48 607.999 236.832C608.071 236.16 608.107 235.392 608.107 234.528L608.143 229.488C608.167 227.424 607.867 225.864 607.243 224.808C606.619 223.752 605.599 223.236 604.183 223.26C603.439 223.26 602.707 223.428 601.987 223.764C601.267 224.076 600.655 224.484 600.151 224.988C600.151 225.276 600.151 225.588 600.151 225.924C600.175 226.236 600.187 226.572 600.187 226.932V236.184C600.187 236.664 600.175 237.096 600.151 237.48C600.151 237.84 600.115 238.224 600.043 238.632C600.427 238.608 600.799 238.596 601.159 238.596C601.543 238.572 601.927 238.548 602.311 238.524V240H594.967ZM635.847 240.576C634.191 240.576 632.691 240.192 631.347 239.424C630.027 238.632 628.983 237.528 628.215 236.112C627.447 234.672 627.063 232.98 627.063 231.036C627.063 229.356 627.435 227.784 628.179 226.32C628.947 224.856 630.015 223.68 631.383 222.792C632.751 221.88 634.335 221.424 636.135 221.424C637.143 221.424 638.079 221.592 638.943 221.928C639.831 222.24 640.611 222.732 641.283 223.404C641.955 224.052 642.483 224.88 642.867 225.888C643.251 226.872 643.443 228.036 643.443 229.38L630.771 229.596C630.771 231.42 630.963 233.028 631.347 234.42C631.755 235.788 632.403 236.856 633.291 237.624C634.179 238.368 635.319 238.74 636.711 238.74C637.455 238.74 638.211 238.608 638.979 238.344C639.771 238.08 640.503 237.72 641.175 237.264C641.847 236.808 642.387 236.304 642.795 235.752L643.659 236.472C643.011 237.48 642.231 238.284 641.319 238.884C640.407 239.484 639.471 239.916 638.511 240.18C637.551 240.444 636.663 240.576 635.847 240.576ZM630.879 228.084H640.059C640.059 227.22 639.927 226.392 639.663 225.6C639.423 224.784 639.015 224.124 638.439 223.62C637.863 223.092 637.107 222.828 636.171 222.828C634.779 222.828 633.615 223.248 632.679 224.088C631.767 224.904 631.167 226.236 630.879 228.084ZM652.698 240.108L647.982 226.284C647.814 225.78 647.658 225.348 647.514 224.988C647.394 224.628 647.298 224.316 647.226 224.052C647.154 223.788 647.094 223.56 647.046 223.368L645.138 223.476V222H652.77V223.08C651.69 223.104 651.09 223.476 650.97 224.196C650.874 224.892 651.018 225.816 651.402 226.968L653.058 232.008C653.25 232.584 653.442 233.172 653.634 233.772C653.826 234.348 654.018 234.924 654.21 235.5C654.426 234.852 654.642 234.204 654.858 233.556C655.098 232.884 655.326 232.212 655.542 231.54L658.746 222H660.222L663.858 232.476C664.05 233.004 664.242 233.544 664.434 234.096C664.626 234.648 664.818 235.2 665.01 235.752C665.202 235.224 665.382 234.708 665.55 234.204C665.742 233.676 665.922 233.148 666.09 232.62L668.466 225.78C668.634 225.3 668.802 224.844 668.97 224.412C669.138 223.98 669.33 223.632 669.546 223.368L667.458 223.476V222H673.722V223.08C673.098 223.104 672.582 223.188 672.174 223.332C671.79 223.476 671.466 223.668 671.202 223.908C670.938 224.148 670.722 224.436 670.554 224.772C670.386 225.108 670.23 225.492 670.086 225.924L664.902 240.108H663.462L660.042 230.28C659.898 229.848 659.754 229.428 659.61 229.02C659.466 228.588 659.322 228.168 659.178 227.76C659.034 227.328 658.89 226.908 658.746 226.5C658.602 226.908 658.458 227.328 658.314 227.76C658.17 228.168 658.026 228.588 657.882 229.02C657.738 229.428 657.594 229.848 657.45 230.28L654.066 240.108H652.698ZM683.84 240.576C682.16 240.576 680.636 240.192 679.268 239.424C677.9 238.632 676.808 237.552 675.992 236.184C675.2 234.792 674.804 233.208 674.804 231.432C674.804 229.536 675.2 227.832 675.992 226.32C676.784 224.808 677.864 223.62 679.232 222.756C680.6 221.868 682.136 221.424 683.84 221.424C685.52 221.424 687.044 221.832 688.412 222.648C689.78 223.44 690.872 224.52 691.688 225.888C692.504 227.256 692.912 228.816 692.912 230.568C692.912 232.416 692.504 234.108 691.688 235.644C690.896 237.156 689.816 238.356 688.448 239.244C687.08 240.132 685.544 240.576 683.84 240.576ZM684.128 239.136C685.4 239.136 686.408 238.776 687.152 238.056C687.896 237.336 688.424 236.4 688.736 235.248C689.072 234.096 689.24 232.884 689.24 231.612C689.24 230.532 689.132 229.476 688.916 228.444C688.724 227.388 688.412 226.44 687.98 225.6C687.548 224.736 686.984 224.052 686.288 223.548C685.616 223.044 684.8 222.792 683.84 222.792C682.592 222.792 681.572 223.152 680.78 223.872C679.988 224.592 679.4 225.528 679.016 226.68C678.656 227.832 678.476 229.068 678.476 230.388C678.476 231.876 678.68 233.292 679.088 234.636C679.496 235.956 680.12 237.036 680.96 237.876C681.8 238.716 682.856 239.136 684.128 239.136ZM695.971 238.92C696.715 238.92 697.231 238.74 697.519 238.38C697.807 237.996 697.975 237.48 698.023 236.832C698.071 236.16 698.095 235.392 698.095 234.528V226.32C698.095 225.936 698.095 225.552 698.095 225.168C698.119 224.784 698.167 224.388 698.239 223.98C697.807 224.004 697.375 224.028 696.943 224.052C696.535 224.052 696.115 224.064 695.683 224.088V222.612H696.799C697.831 222.612 698.539 222.516 698.923 222.324C699.331 222.108 699.667 221.88 699.931 221.64H700.975C701.023 222.024 701.059 222.504 701.083 223.08C701.107 223.632 701.131 224.34 701.155 225.204C701.515 224.604 702.007 224.016 702.631 223.44C703.255 222.864 703.951 222.384 704.719 222C705.511 221.616 706.339 221.424 707.203 221.424C707.875 221.424 708.463 221.604 708.967 221.964C709.471 222.324 709.723 222.9 709.723 223.692C709.723 223.884 709.663 224.124 709.543 224.412C709.423 224.676 709.231 224.916 708.967 225.132C708.703 225.324 708.355 225.42 707.923 225.42C707.395 225.396 706.975 225.192 706.663 224.808C706.351 224.4 706.231 223.932 706.303 223.404C705.703 223.38 705.079 223.536 704.431 223.872C703.807 224.208 703.219 224.676 702.667 225.276C702.115 225.852 701.623 226.536 701.191 227.328L701.227 236.184C701.227 236.664 701.215 237.096 701.191 237.48C701.191 237.84 701.155 238.224 701.083 238.632C701.467 238.608 701.839 238.596 702.199 238.596C702.583 238.572 702.967 238.548 703.351 238.524V240H695.971V238.92ZM711.08 240V238.92C711.824 238.92 712.328 238.74 712.592 238.38C712.88 237.996 713.048 237.48 713.096 236.832C713.144 236.16 713.168 235.392 713.168 234.528L713.204 217.5C713.204 217.116 713.204 216.756 713.204 216.42C713.228 216.06 713.264 215.64 713.312 215.16C712.88 215.184 712.448 215.208 712.016 215.232C711.608 215.256 711.188 215.28 710.756 215.304V213.792C711.812 213.792 712.628 213.744 713.204 213.648C713.78 213.552 714.212 213.432 714.5 213.288C714.812 213.144 715.052 212.988 715.22 212.82H716.264V229.848H717.704L722.096 225.24C722.504 224.832 722.876 224.472 723.212 224.16C723.548 223.824 723.884 223.548 724.22 223.332L721.772 223.44V222H728.324V223.08C727.508 223.152 726.74 223.416 726.02 223.872C725.324 224.304 724.676 224.796 724.076 225.348C723.5 225.9 722.996 226.404 722.564 226.86L719.756 229.812C720.236 230.028 720.644 230.304 720.98 230.64C721.316 230.976 721.652 231.348 721.988 231.756L724.544 235.032C724.664 235.176 724.868 235.452 725.156 235.86C725.468 236.268 725.828 236.712 726.236 237.192C726.668 237.672 727.112 238.08 727.568 238.416C728.048 238.752 728.492 238.92 728.9 238.92V240H725.624C724.952 240 724.316 239.652 723.716 238.956C723.116 238.26 722.48 237.48 721.808 236.616C721.184 235.752 720.62 234.972 720.116 234.276C719.636 233.556 719.192 232.932 718.784 232.404C718.4 231.876 718.052 231.468 717.74 231.18L716.264 231.252V236.184C716.264 236.664 716.252 237.096 716.228 237.48C716.228 237.84 716.192 238.224 716.12 238.632C716.504 238.608 716.888 238.596 717.272 238.596C717.656 238.572 718.04 238.548 718.424 238.524V240H711.08ZM742.465 221.244C742.465 218.58 742.945 216.48 743.905 214.944C744.889 213.408 746.569 212.64 748.945 212.64C749.473 212.64 750.025 212.736 750.601 212.928C751.201 213.096 751.717 213.384 752.149 213.792C752.581 214.176 752.797 214.68 752.797 215.304C752.797 215.76 752.665 216.144 752.401 216.456C752.161 216.768 751.801 216.924 751.321 216.924C750.745 216.948 750.337 216.78 750.097 216.42C749.881 216.036 749.773 215.712 749.773 215.448C749.773 215.304 749.785 215.16 749.809 215.016C749.833 214.872 749.881 214.716 749.953 214.548C749.785 214.332 749.545 214.176 749.233 214.08C748.945 213.984 748.669 213.936 748.405 213.936C747.661 213.936 747.085 214.152 746.677 214.584C746.269 215.016 745.981 215.556 745.813 216.204C745.645 216.852 745.561 217.524 745.561 218.22V222H750.421V223.404L745.561 223.512L745.597 236.184C745.597 236.664 745.585 237.096 745.561 237.48C745.561 237.84 745.525 238.224 745.453 238.632C745.837 238.608 746.209 238.596 746.569 238.596C746.953 238.572 747.337 238.548 747.721 238.524V240H740.377V238.92C741.121 238.92 741.637 238.74 741.925 238.38C742.213 237.996 742.381 237.48 742.429 236.832C742.477 236.16 742.501 235.392 742.501 234.528L742.465 223.548L739.513 223.62V222H742.465V221.244ZM761.114 240.576C759.434 240.576 757.91 240.192 756.542 239.424C755.174 238.632 754.082 237.552 753.266 236.184C752.474 234.792 752.078 233.208 752.078 231.432C752.078 229.536 752.474 227.832 753.266 226.32C754.058 224.808 755.138 223.62 756.506 222.756C757.874 221.868 759.41 221.424 761.114 221.424C762.794 221.424 764.318 221.832 765.686 222.648C767.054 223.44 768.146 224.52 768.962 225.888C769.778 227.256 770.186 228.816 770.186 230.568C770.186 232.416 769.778 234.108 768.962 235.644C768.17 237.156 767.09 238.356 765.722 239.244C764.354 240.132 762.818 240.576 761.114 240.576ZM761.402 239.136C762.674 239.136 763.682 238.776 764.426 238.056C765.17 237.336 765.698 236.4 766.01 235.248C766.346 234.096 766.514 232.884 766.514 231.612C766.514 230.532 766.406 229.476 766.19 228.444C765.998 227.388 765.686 226.44 765.254 225.6C764.822 224.736 764.258 224.052 763.562 223.548C762.89 223.044 762.074 222.792 761.114 222.792C759.866 222.792 758.846 223.152 758.054 223.872C757.262 224.592 756.674 225.528 756.29 226.68C755.93 227.832 755.75 229.068 755.75 230.388C755.75 231.876 755.954 233.292 756.362 234.636C756.77 235.956 757.394 237.036 758.234 237.876C759.074 238.716 760.13 239.136 761.402 239.136ZM773.244 238.92C773.988 238.92 774.504 238.74 774.792 238.38C775.08 237.996 775.248 237.48 775.296 236.832C775.344 236.16 775.368 235.392 775.368 234.528V226.32C775.368 225.936 775.368 225.552 775.368 225.168C775.392 224.784 775.44 224.388 775.512 223.98C775.08 224.004 774.648 224.028 774.216 224.052C773.808 224.052 773.388 224.064 772.956 224.088V222.612H774.072C775.104 222.612 775.812 222.516 776.196 222.324C776.604 222.108 776.94 221.88 777.204 221.64H778.248C778.296 222.024 778.332 222.504 778.356 223.08C778.38 223.632 778.404 224.34 778.428 225.204C778.788 224.604 779.28 224.016 779.904 223.44C780.528 222.864 781.224 222.384 781.992 222C782.784 221.616 783.612 221.424 784.476 221.424C785.148 221.424 785.736 221.604 786.24 221.964C786.744 222.324 786.996 222.9 786.996 223.692C786.996 223.884 786.936 224.124 786.816 224.412C786.696 224.676 786.504 224.916 786.24 225.132C785.976 225.324 785.628 225.42 785.196 225.42C784.668 225.396 784.248 225.192 783.936 224.808C783.624 224.4 783.504 223.932 783.576 223.404C782.976 223.38 782.352 223.536 781.704 223.872C781.08 224.208 780.492 224.676 779.94 225.276C779.388 225.852 778.896 226.536 778.464 227.328L778.5 236.184C778.5 236.664 778.488 237.096 778.464 237.48C778.464 237.84 778.428 238.224 778.356 238.632C778.74 238.608 779.112 238.596 779.472 238.596C779.856 238.572 780.24 238.548 780.624 238.524V240H773.244V238.92ZM805.871 215.988C805.079 215.988 804.503 216.156 804.143 216.492C803.807 216.828 803.603 217.224 803.531 217.68C803.459 218.112 803.423 218.496 803.423 218.832V227.904C803.423 229.248 803.507 230.556 803.675 231.828C803.867 233.076 804.215 234.204 804.719 235.212C805.223 236.22 805.967 237.024 806.951 237.624C807.959 238.224 809.267 238.524 810.875 238.524C812.603 238.524 814.007 238.116 815.087 237.3C816.191 236.484 816.995 235.356 817.499 233.916C818.027 232.476 818.303 230.82 818.327 228.948L818.435 218.832C818.435 218.352 818.447 217.896 818.471 217.464C818.495 217.008 818.519 216.6 818.543 216.24C818.111 216.264 817.679 216.288 817.247 216.312C816.839 216.336 816.419 216.36 815.987 216.384V214.8H822.683V215.988C821.771 216.012 821.135 216.216 820.775 216.6C820.439 216.984 820.247 217.5 820.199 218.148C820.175 218.796 820.163 219.552 820.163 220.416L820.091 228.768C820.091 230.328 819.923 231.816 819.587 233.232C819.251 234.648 818.699 235.908 817.931 237.012C817.187 238.116 816.191 238.992 814.943 239.64C813.719 240.264 812.207 240.576 810.407 240.576C808.487 240.576 806.867 240.324 805.547 239.82C804.251 239.316 803.207 238.536 802.415 237.48C801.647 236.424 801.095 235.092 800.759 233.484C800.423 231.876 800.255 229.956 800.255 227.724V220.416C800.255 219.792 800.267 219.06 800.291 218.22C800.339 217.356 800.375 216.696 800.399 216.24C799.967 216.264 799.535 216.288 799.103 216.312C798.671 216.312 798.239 216.324 797.807 216.348V214.8H805.871V215.988ZM825.346 240V238.92C826.09 238.92 826.606 238.74 826.894 238.38C827.182 237.996 827.35 237.48 827.398 236.832C827.446 236.16 827.47 235.392 827.47 234.528L827.506 226.32C827.506 225.936 827.506 225.552 827.506 225.168C827.53 224.784 827.578 224.388 827.65 223.98C827.218 224.004 826.786 224.028 826.354 224.052C825.946 224.076 825.526 224.1 825.094 224.124V222.612C826.15 222.612 826.942 222.564 827.47 222.468C828.022 222.372 828.43 222.252 828.694 222.108C828.958 221.964 829.174 221.808 829.342 221.64H830.386C830.41 221.808 830.422 222 830.422 222.216C830.446 222.432 830.47 222.672 830.494 222.936C830.518 223.2 830.53 223.5 830.53 223.836C831.058 223.38 831.634 222.972 832.258 222.612C832.906 222.252 833.578 221.964 834.274 221.748C834.994 221.532 835.702 221.424 836.398 221.424C838.486 221.424 840.01 222.084 840.97 223.404C841.93 224.7 842.41 226.728 842.41 229.488V236.184C842.41 236.664 842.398 237.096 842.374 237.48C842.374 237.84 842.338 238.224 842.266 238.632C842.65 238.608 843.022 238.596 843.382 238.596C843.766 238.572 844.15 238.548 844.534 238.524V240H837.19V238.92C837.934 238.92 838.45 238.74 838.738 238.38C839.026 237.996 839.194 237.48 839.242 236.832C839.29 236.16 839.314 235.392 839.314 234.528V229.488C839.29 227.424 838.942 225.864 838.27 224.808C837.622 223.752 836.59 223.236 835.174 223.26C834.31 223.284 833.458 223.512 832.618 223.944C831.802 224.376 831.118 224.928 830.566 225.6C830.59 225.792 830.602 226.008 830.602 226.248C830.602 226.488 830.602 226.74 830.602 227.004L830.566 236.184C830.566 236.664 830.554 237.096 830.53 237.48C830.53 237.84 830.494 238.224 830.422 238.632C830.806 238.608 831.178 238.596 831.538 238.596C831.922 238.572 832.306 238.548 832.69 238.524V240H825.346ZM855.997 240.576C854.389 240.576 852.901 240.216 851.533 239.496C850.189 238.752 849.109 237.696 848.293 236.328C847.501 234.936 847.105 233.268 847.105 231.324C847.105 230.076 847.333 228.864 847.789 227.688C848.245 226.512 848.881 225.456 849.697 224.52C850.537 223.56 851.533 222.804 852.685 222.252C853.837 221.7 855.109 221.424 856.501 221.424C857.845 221.424 859.009 221.628 859.993 222.036C861.001 222.444 861.781 222.984 862.333 223.656C862.885 224.328 863.161 225.06 863.161 225.852C863.161 226.38 863.017 226.836 862.729 227.22C862.441 227.58 862.021 227.76 861.469 227.76C860.869 227.784 860.437 227.604 860.173 227.22C859.933 226.812 859.813 226.452 859.813 226.14C859.813 225.9 859.849 225.66 859.921 225.42C859.993 225.156 860.137 224.916 860.353 224.7C860.161 224.124 859.825 223.704 859.345 223.44C858.865 223.152 858.361 222.972 857.833 222.9C857.329 222.804 856.909 222.756 856.573 222.756C854.941 222.756 853.561 223.416 852.433 224.736C851.329 226.032 850.777 227.928 850.777 230.424C850.777 232.032 851.029 233.46 851.533 234.708C852.061 235.956 852.793 236.94 853.729 237.66C854.665 238.356 855.745 238.704 856.969 238.704C858.097 238.704 859.177 238.404 860.209 237.804C861.241 237.204 862.045 236.472 862.621 235.608L863.557 236.328C862.933 237.336 862.177 238.152 861.289 238.776C860.425 239.4 859.525 239.856 858.589 240.144C857.677 240.432 856.813 240.576 855.997 240.576ZM875.125 240.576C873.445 240.576 871.921 240.192 870.553 239.424C869.185 238.632 868.093 237.552 867.277 236.184C866.485 234.792 866.089 233.208 866.089 231.432C866.089 229.536 866.485 227.832 867.277 226.32C868.069 224.808 869.149 223.62 870.517 222.756C871.885 221.868 873.421 221.424 875.125 221.424C876.805 221.424 878.329 221.832 879.697 222.648C881.065 223.44 882.157 224.52 882.973 225.888C883.789 227.256 884.197 228.816 884.197 230.568C884.197 232.416 883.789 234.108 882.973 235.644C882.181 237.156 881.101 238.356 879.733 239.244C878.365 240.132 876.829 240.576 875.125 240.576ZM875.413 239.136C876.685 239.136 877.693 238.776 878.437 238.056C879.181 237.336 879.709 236.4 880.021 235.248C880.357 234.096 880.525 232.884 880.525 231.612C880.525 230.532 880.417 229.476 880.201 228.444C880.009 227.388 879.697 226.44 879.265 225.6C878.833 224.736 878.269 224.052 877.573 223.548C876.901 223.044 876.085 222.792 875.125 222.792C873.877 222.792 872.857 223.152 872.065 223.872C871.273 224.592 870.685 225.528 870.301 226.68C869.941 227.832 869.761 229.068 869.761 230.388C869.761 231.876 869.965 233.292 870.373 234.636C870.781 235.956 871.405 237.036 872.245 237.876C873.085 238.716 874.141 239.136 875.413 239.136ZM887.256 240V238.92C888 238.92 888.516 238.74 888.804 238.38C889.092 237.996 889.26 237.48 889.308 236.832C889.356 236.16 889.38 235.392 889.38 234.528V226.32C889.38 225.936 889.38 225.552 889.38 225.168C889.404 224.784 889.452 224.388 889.524 223.98C889.092 224.004 888.66 224.028 888.228 224.052C887.82 224.076 887.4 224.1 886.968 224.124V222.612C888.024 222.612 888.816 222.564 889.344 222.468C889.896 222.372 890.304 222.252 890.568 222.108C890.832 221.964 891.048 221.808 891.216 221.64H892.26C892.308 221.88 892.332 222.156 892.332 222.468C892.356 222.78 892.38 223.14 892.404 223.548C893.124 222.924 893.952 222.42 894.888 222.036C895.824 221.628 896.76 221.424 897.696 221.424C898.896 221.424 899.904 221.64 900.72 222.072C901.536 222.504 902.172 223.092 902.628 223.836C903.444 223.164 904.38 222.6 905.436 222.144C906.516 221.664 907.572 221.424 908.604 221.424C910.692 221.424 912.228 222.06 913.212 223.332C914.196 224.58 914.664 226.632 914.616 229.488L914.58 236.184C914.58 236.664 914.568 237.096 914.544 237.48C914.544 237.84 914.508 238.224 914.436 238.632C914.82 238.608 915.192 238.596 915.552 238.596C915.936 238.572 916.32 238.548 916.704 238.524V240H909.36V238.92C910.104 238.92 910.62 238.74 910.908 238.38C911.196 237.996 911.364 237.48 911.412 236.832C911.46 236.16 911.484 235.392 911.484 234.528V229.488C911.484 227.424 911.148 225.876 910.476 224.844C909.828 223.812 908.796 223.308 907.38 223.332C906.636 223.332 905.892 223.5 905.148 223.836C904.404 224.172 903.756 224.592 903.204 225.096C903.324 225.48 903.408 225.9 903.456 226.356C903.528 226.788 903.564 227.244 903.564 227.724C903.54 229.116 903.528 230.52 903.528 231.936C903.528 233.352 903.516 234.768 903.492 236.184C903.492 236.664 903.48 237.096 903.456 237.48C903.456 237.84 903.42 238.224 903.348 238.632C903.732 238.608 904.104 238.596 904.464 238.596C904.848 238.572 905.232 238.548 905.616 238.524V240H898.272V238.92C899.016 238.92 899.52 238.74 899.784 238.38C900.072 237.996 900.24 237.48 900.288 236.832C900.36 236.16 900.396 235.392 900.396 234.528L900.432 229.488C900.456 227.424 900.156 225.864 899.532 224.808C898.908 223.752 897.888 223.236 896.472 223.26C895.728 223.26 894.996 223.428 894.276 223.764C893.556 224.076 892.944 224.484 892.44 224.988C892.44 225.276 892.44 225.588 892.44 225.924C892.464 226.236 892.476 226.572 892.476 226.932V236.184C892.476 236.664 892.464 237.096 892.44 237.48C892.44 237.84 892.404 238.224 892.332 238.632C892.716 238.608 893.088 238.596 893.448 238.596C893.832 238.572 894.216 238.548 894.6 238.524V240H887.256ZM919.1 249.18V248.1C919.844 248.1 920.36 247.908 920.648 247.524C920.936 247.164 921.104 246.648 921.152 245.976C921.2 245.328 921.224 244.572 921.224 243.708L921.296 226.32C921.296 225.936 921.296 225.552 921.296 225.168C921.32 224.784 921.368 224.388 921.44 223.98C921.008 224.004 920.576 224.028 920.144 224.052C919.736 224.076 919.316 224.1 918.884 224.124V222.612C919.94 222.612 920.732 222.564 921.26 222.468C921.812 222.372 922.208 222.252 922.448 222.108C922.712 221.964 922.928 221.808 923.096 221.64H924.176C924.2 221.88 924.224 222.168 924.248 222.504C924.272 222.816 924.296 223.176 924.32 223.584C925.04 222.936 925.892 222.42 926.876 222.036C927.884 221.628 928.892 221.424 929.9 221.424C931.292 221.424 932.588 221.784 933.788 222.504C934.988 223.224 935.96 224.256 936.704 225.6C937.448 226.92 937.82 228.504 937.82 230.352C937.82 232.392 937.388 234.18 936.524 235.716C935.684 237.252 934.568 238.452 933.176 239.316C931.784 240.156 930.272 240.576 928.64 240.576C927.8 240.576 927.02 240.468 926.3 240.252C925.604 240.06 924.944 239.772 924.32 239.388V245.364C924.32 245.844 924.308 246.264 924.284 246.624C924.284 247.008 924.248 247.404 924.176 247.812C924.56 247.788 924.932 247.764 925.292 247.74C925.676 247.74 926.06 247.728 926.444 247.704V249.18H919.1ZM928.568 239.136C929.72 239.136 930.704 238.788 931.52 238.092C932.36 237.372 932.996 236.4 933.428 235.176C933.884 233.928 934.112 232.512 934.112 230.928C934.112 229.632 933.92 228.396 933.536 227.22C933.176 226.02 932.588 225.048 931.772 224.304C930.98 223.56 929.924 223.188 928.604 223.188C927.788 223.188 926.996 223.392 926.228 223.8C925.484 224.184 924.86 224.652 924.356 225.204C924.356 225.3 924.356 225.444 924.356 225.636C924.38 225.804 924.392 226.116 924.392 226.572C924.392 227.004 924.392 227.664 924.392 228.552C924.392 229.416 924.38 230.592 924.356 232.08C924.356 233.568 924.356 235.452 924.356 237.732C924.956 238.188 925.604 238.536 926.3 238.776C927.02 239.016 927.776 239.136 928.568 239.136ZM940.544 238.92C941.288 238.92 941.804 238.74 942.092 238.38C942.38 237.996 942.548 237.48 942.596 236.832C942.644 236.16 942.668 235.392 942.668 234.528V217.5C942.668 217.116 942.668 216.756 942.668 216.42C942.692 216.06 942.728 215.64 942.776 215.16C942.344 215.184 941.912 215.208 941.48 215.232C941.072 215.256 940.652 215.28 940.22 215.304V213.792C941.276 213.792 942.092 213.744 942.668 213.648C943.268 213.552 943.712 213.432 944 213.288C944.312 213.144 944.552 212.988 944.72 212.82H945.764L945.8 236.184C945.8 236.664 945.788 237.096 945.764 237.48C945.74 237.84 945.692 238.224 945.62 238.632C946.004 238.608 946.376 238.596 946.736 238.596C947.12 238.572 947.504 238.548 947.888 238.524V240H940.544V238.92ZM950.713 238.92C951.457 238.92 951.973 238.74 952.261 238.38C952.549 237.996 952.717 237.48 952.765 236.832C952.813 236.16 952.837 235.392 952.837 234.528V226.32C952.837 225.936 952.849 225.576 952.873 225.24C952.897 224.88 952.933 224.46 952.981 223.98C952.549 224.004 952.117 224.028 951.685 224.052C951.277 224.076 950.857 224.1 950.425 224.124V222.612C951.481 222.612 952.297 222.564 952.873 222.468C953.449 222.372 953.881 222.252 954.169 222.108C954.481 221.964 954.721 221.808 954.889 221.64H955.933V236.184C955.933 236.664 955.921 237.096 955.897 237.48C955.897 237.84 955.861 238.224 955.789 238.632C956.173 238.608 956.545 238.596 956.905 238.596C957.289 238.572 957.673 238.548 958.057 238.524V240H950.713V238.92ZM954.205 218.076C953.701 218.076 953.257 217.872 952.873 217.464C952.489 217.056 952.297 216.552 952.297 215.952C952.297 215.352 952.489 214.848 952.873 214.44C953.281 214.008 953.737 213.792 954.241 213.792C954.793 213.792 955.249 214.008 955.609 214.44C955.993 214.848 956.185 215.352 956.185 215.952C956.185 216.552 955.981 217.056 955.573 217.464C955.189 217.872 954.733 218.076 954.205 218.076ZM969.622 240.576C968.014 240.576 966.526 240.216 965.158 239.496C963.814 238.752 962.734 237.696 961.918 236.328C961.126 234.936 960.73 233.268 960.73 231.324C960.73 230.076 960.958 228.864 961.414 227.688C961.87 226.512 962.506 225.456 963.322 224.52C964.162 223.56 965.158 222.804 966.31 222.252C967.462 221.7 968.734 221.424 970.126 221.424C971.47 221.424 972.634 221.628 973.618 222.036C974.626 222.444 975.406 222.984 975.958 223.656C976.51 224.328 976.786 225.06 976.786 225.852C976.786 226.38 976.642 226.836 976.354 227.22C976.066 227.58 975.646 227.76 975.094 227.76C974.494 227.784 974.062 227.604 973.798 227.22C973.558 226.812 973.438 226.452 973.438 226.14C973.438 225.9 973.474 225.66 973.546 225.42C973.618 225.156 973.762 224.916 973.978 224.7C973.786 224.124 973.45 223.704 972.97 223.44C972.49 223.152 971.986 222.972 971.458 222.9C970.954 222.804 970.534 222.756 970.198 222.756C968.566 222.756 967.186 223.416 966.058 224.736C964.954 226.032 964.402 227.928 964.402 230.424C964.402 232.032 964.654 233.46 965.158 234.708C965.686 235.956 966.418 236.94 967.354 237.66C968.29 238.356 969.37 238.704 970.594 238.704C971.722 238.704 972.802 238.404 973.834 237.804C974.866 237.204 975.67 236.472 976.246 235.608L977.182 236.328C976.558 237.336 975.802 238.152 974.914 238.776C974.05 239.4 973.15 239.856 972.214 240.144C971.302 240.432 970.438 240.576 969.622 240.576ZM990.872 240C990.8 239.592 990.752 239.232 990.728 238.92C990.704 238.608 990.668 238.284 990.62 237.948C989.804 238.764 988.916 239.412 987.956 239.892C987.02 240.348 986.024 240.576 984.968 240.576C983.144 240.576 981.788 240.168 980.9 239.352C980.012 238.512 979.568 237.492 979.568 236.292C979.568 235.188 979.904 234.24 980.576 233.448C981.272 232.632 982.16 231.972 983.24 231.468C984.344 230.94 985.532 230.556 986.804 230.316C988.1 230.052 989.348 229.932 990.548 229.956V227.724C990.548 226.884 990.476 226.092 990.332 225.348C990.188 224.604 989.876 223.992 989.396 223.512C988.916 223.032 988.148 222.78 987.092 222.756C986.396 222.732 985.676 222.864 984.932 223.152C984.212 223.44 983.684 223.932 983.348 224.628C983.54 224.82 983.66 225.048 983.708 225.312C983.78 225.552 983.816 225.78 983.816 225.996C983.816 226.284 983.696 226.62 983.456 227.004C983.216 227.364 982.796 227.532 982.196 227.508C981.692 227.508 981.308 227.34 981.044 227.004C980.78 226.644 980.648 226.224 980.648 225.744C980.648 224.928 980.948 224.196 981.548 223.548C982.172 222.9 983.024 222.384 984.104 222C985.184 221.616 986.408 221.424 987.776 221.424C989.792 221.424 991.28 221.964 992.24 223.044C993.2 224.1 993.668 225.78 993.644 228.084C993.644 228.972 993.644 229.872 993.644 230.784C993.644 231.672 993.632 232.572 993.608 233.484C993.608 234.372 993.608 235.272 993.608 236.184C993.608 236.568 993.596 236.952 993.572 237.336C993.548 237.72 993.512 238.152 993.464 238.632C993.896 238.608 994.316 238.584 994.724 238.56C995.156 238.536 995.588 238.512 996.02 238.488V240H990.872ZM990.548 231.18C989.732 231.204 988.868 231.312 987.956 231.504C987.068 231.672 986.24 231.936 985.472 232.296C984.728 232.656 984.116 233.136 983.636 233.736C983.18 234.312 982.964 235.02 982.988 235.86C983.036 236.748 983.324 237.42 983.852 237.876C984.404 238.308 985.052 238.524 985.796 238.524C986.78 238.524 987.632 238.344 988.352 237.984C989.096 237.6 989.828 237.072 990.548 236.4C990.524 236.136 990.512 235.848 990.512 235.536C990.512 235.224 990.512 234.9 990.512 234.564C990.512 234.444 990.512 234.06 990.512 233.412C990.536 232.764 990.548 232.02 990.548 231.18ZM1005.01 240.576C1004.46 240.576 1003.9 240.492 1003.32 240.324C1002.74 240.18 1002.2 239.88 1001.7 239.424C1001.22 238.968 1000.84 238.308 1000.55 237.444C1000.26 236.556 1000.12 235.392 1000.12 233.952L1000.19 223.512L997.416 223.548V222C998.04 221.976 998.676 221.748 999.324 221.316C999.972 220.86 1000.55 220.248 1001.05 219.48C1001.58 218.712 1001.94 217.872 1002.13 216.96H1003.36V222H1009.4V223.404L1003.36 223.476L1003.28 233.484C1003.28 234.564 1003.37 235.488 1003.54 236.256C1003.73 237 1004.03 237.564 1004.44 237.948C1004.84 238.332 1005.37 238.524 1006.02 238.524C1006.69 238.524 1007.32 238.332 1007.89 237.948C1008.49 237.564 1009.02 237.036 1009.48 236.364L1010.45 237.156C1009.92 237.948 1009.39 238.572 1008.86 239.028C1008.36 239.484 1007.87 239.82 1007.39 240.036C1006.91 240.276 1006.46 240.42 1006.06 240.468C1005.65 240.54 1005.3 240.576 1005.01 240.576ZM1020.88 240.576C1019.22 240.576 1017.72 240.192 1016.38 239.424C1015.06 238.632 1014.01 237.528 1013.25 236.112C1012.48 234.672 1012.09 232.98 1012.09 231.036C1012.09 229.356 1012.47 227.784 1013.21 226.32C1013.98 224.856 1015.05 223.68 1016.41 222.792C1017.78 221.88 1019.37 221.424 1021.17 221.424C1022.17 221.424 1023.11 221.592 1023.97 221.928C1024.86 222.24 1025.64 222.732 1026.31 223.404C1026.99 224.052 1027.51 224.88 1027.9 225.888C1028.28 226.872 1028.47 228.036 1028.47 229.38L1015.8 229.596C1015.8 231.42 1015.99 233.028 1016.38 234.42C1016.79 235.788 1017.43 236.856 1018.32 237.624C1019.21 238.368 1020.35 238.74 1021.74 238.74C1022.49 238.74 1023.24 238.608 1024.01 238.344C1024.8 238.08 1025.53 237.72 1026.21 237.264C1026.88 236.808 1027.42 236.304 1027.83 235.752L1028.69 236.472C1028.04 237.48 1027.26 238.284 1026.35 238.884C1025.44 239.484 1024.5 239.916 1023.54 240.18C1022.58 240.444 1021.69 240.576 1020.88 240.576ZM1015.91 228.084H1025.09C1025.09 227.22 1024.96 226.392 1024.69 225.6C1024.45 224.784 1024.05 224.124 1023.47 223.62C1022.89 223.092 1022.14 222.828 1021.2 222.828C1019.81 222.828 1018.65 223.248 1017.71 224.088C1016.8 224.904 1016.2 226.236 1015.91 228.084ZM1039.21 240.576C1037.74 240.576 1036.42 240.216 1035.25 239.496C1034.07 238.752 1033.13 237.696 1032.44 236.328C1031.77 234.96 1031.43 233.352 1031.43 231.504C1031.43 229.536 1031.83 227.796 1032.62 226.284C1033.41 224.772 1034.5 223.584 1035.89 222.72C1037.31 221.856 1038.91 221.424 1040.68 221.424C1041.47 221.424 1042.25 221.532 1043.02 221.748C1043.81 221.94 1044.44 222.168 1044.89 222.432V217.5C1044.89 217.116 1044.89 216.756 1044.89 216.42C1044.92 216.06 1044.95 215.64 1045 215.16C1044.57 215.184 1044.14 215.208 1043.71 215.232C1043.3 215.256 1042.88 215.28 1042.45 215.304V213.792C1043.5 213.792 1044.32 213.744 1044.89 213.648C1045.47 213.552 1045.9 213.432 1046.19 213.288C1046.5 213.144 1046.74 212.988 1046.91 212.82H1047.95V236.184C1047.95 236.568 1047.94 236.952 1047.92 237.336C1047.89 237.72 1047.86 238.152 1047.81 238.632C1048.24 238.608 1048.66 238.584 1049.07 238.56C1049.5 238.536 1049.93 238.512 1050.37 238.488V240H1045.22C1045.15 239.64 1045.09 239.316 1045.04 239.028C1045.01 238.716 1044.99 238.416 1044.97 238.128C1044.29 238.872 1043.47 239.472 1042.48 239.928C1041.5 240.36 1040.41 240.576 1039.21 240.576ZM1040.5 238.812C1041.29 238.812 1042.09 238.584 1042.88 238.128C1043.69 237.672 1044.37 237.108 1044.89 236.436C1044.87 236.148 1044.86 235.848 1044.86 235.536C1044.86 235.2 1044.86 234.84 1044.86 234.456L1044.89 224.088C1044.32 223.656 1043.68 223.344 1042.99 223.152C1042.31 222.936 1041.62 222.828 1040.9 222.828C1039.7 222.828 1038.65 223.176 1037.77 223.872C1036.88 224.568 1036.21 225.54 1035.75 226.788C1035.29 228.036 1035.09 229.5 1035.14 231.18C1035.19 232.644 1035.41 233.952 1035.82 235.104C1036.25 236.256 1036.85 237.168 1037.62 237.84C1038.41 238.488 1039.37 238.812 1040.5 238.812ZM1070.36 212.64L1071.26 213.468C1070.51 214.452 1069.84 215.496 1069.24 216.6C1068.67 217.68 1068.16 218.808 1067.73 219.984C1067.3 221.136 1066.94 222.336 1066.65 223.584C1066.39 224.832 1066.18 226.116 1066.04 227.436C1065.89 228.732 1065.82 230.052 1065.82 231.396C1065.82 232.74 1065.89 234.06 1066.04 235.356C1066.18 236.628 1066.39 237.864 1066.65 239.064C1066.94 240.264 1067.3 241.428 1067.73 242.556C1068.16 243.708 1068.67 244.812 1069.24 245.868C1069.84 246.924 1070.51 247.944 1071.26 248.928L1070.36 249.756C1069.47 248.94 1068.55 247.896 1067.59 246.624C1066.63 245.376 1065.74 243.948 1064.92 242.34C1064.11 240.732 1063.45 239.004 1062.94 237.156C1062.44 235.308 1062.19 233.388 1062.19 231.396C1062.19 229.404 1062.44 227.46 1062.94 225.564C1063.45 223.668 1064.11 221.892 1064.92 220.236C1065.74 218.58 1066.63 217.104 1067.59 215.808C1068.55 214.512 1069.47 213.456 1070.36 212.64ZM1073.84 240V238.812C1074.75 238.764 1075.38 238.56 1075.71 238.2C1076.05 237.816 1076.23 237.3 1076.25 236.652C1076.3 235.98 1076.32 235.224 1076.32 234.384V218.832C1076.32 218.352 1076.34 217.896 1076.36 217.464C1076.38 217.008 1076.41 216.6 1076.43 216.24C1076 216.264 1075.57 216.288 1075.14 216.312C1074.7 216.336 1074.27 216.36 1073.84 216.384V214.8H1090.54L1090.72 221.1H1089.54C1089.54 219.684 1089.31 218.616 1088.85 217.896C1088.4 217.152 1087.8 216.66 1087.05 216.42C1086.31 216.156 1085.48 216.036 1084.57 216.06L1081.94 216.132C1081.05 216.156 1080.44 216.372 1080.1 216.78C1079.77 217.164 1079.58 217.68 1079.53 218.328C1079.48 218.976 1079.46 219.72 1079.46 220.56V226.752L1085.72 226.788L1085.47 223.656H1087.05V231.252H1085.9C1085.9 230.172 1085.74 229.404 1085.43 228.948C1085.14 228.492 1084.69 228.216 1084.06 228.12C1083.44 228.024 1082.62 228 1081.62 228.048L1079.46 228.156V235.716C1079.46 236.364 1079.44 236.928 1079.42 237.408C1079.42 237.864 1079.4 238.248 1079.35 238.56C1079.76 238.536 1080.16 238.524 1080.57 238.524C1080.98 238.5 1081.39 238.476 1081.8 238.452C1082.2 238.428 1082.61 238.416 1083.02 238.416V240H1073.84ZM1093.56 240V238.812C1094.47 238.764 1095.1 238.56 1095.43 238.2C1095.77 237.816 1095.95 237.3 1095.97 236.652C1096.02 235.98 1096.05 235.224 1096.05 234.384V218.832C1096.05 218.352 1096.06 217.896 1096.08 217.464C1096.11 217.008 1096.13 216.6 1096.15 216.24C1095.72 216.264 1095.29 216.288 1094.86 216.312C1094.43 216.336 1093.99 216.36 1093.56 216.384V214.8C1094.91 214.776 1096.26 214.752 1097.63 214.728C1099.02 214.704 1100.41 214.716 1101.81 214.764C1104.13 214.788 1106.01 215.064 1107.42 215.592C1108.86 216.096 1109.92 216.828 1110.59 217.788C1111.26 218.724 1111.6 219.864 1111.6 221.208C1111.62 222.144 1111.44 223.104 1111.06 224.088C1110.7 225.048 1110.03 225.912 1109.04 226.68C1108.08 227.448 1106.69 228.024 1104.87 228.408C1105.35 228.744 1105.77 229.176 1106.13 229.704C1106.49 230.232 1106.89 230.844 1107.35 231.54L1109.8 235.392C1110.21 236.04 1110.6 236.628 1110.99 237.156C1111.37 237.66 1111.81 238.068 1112.32 238.38C1112.82 238.668 1113.45 238.812 1114.19 238.812V240H1109.65C1108.96 239.376 1108.37 238.752 1107.89 238.128C1107.43 237.504 1106.95 236.796 1106.45 236.004L1104.04 232.152C1103.73 231.648 1103.37 231.072 1102.96 230.424C1102.57 229.752 1102.13 229.188 1101.63 228.732C1101.24 228.756 1100.83 228.768 1100.4 228.768C1099.99 228.768 1099.59 228.756 1099.18 228.732V235.716C1099.18 236.364 1099.17 236.928 1099.14 237.408C1099.14 237.864 1099.12 238.248 1099.07 238.56C1099.36 238.536 1099.65 238.524 1099.93 238.524C1100.22 238.5 1100.51 238.476 1100.8 238.452C1101.09 238.428 1101.37 238.416 1101.66 238.416V240H1093.56ZM1101.41 227.4C1102.73 227.352 1103.88 227.136 1104.87 226.752C1105.87 226.368 1106.67 225.756 1107.24 224.916C1107.82 224.076 1108.11 222.972 1108.11 221.604C1108.11 220.692 1107.97 219.9 1107.71 219.228C1107.47 218.532 1107.09 217.956 1106.56 217.5C1106.03 217.044 1105.36 216.708 1104.54 216.492C1103.73 216.252 1102.77 216.132 1101.66 216.132C1100.77 216.132 1100.15 216.312 1099.79 216.672C1099.45 217.032 1099.26 217.536 1099.21 218.184C1099.19 218.808 1099.18 219.552 1099.18 220.416V227.328C1099.56 227.352 1099.92 227.376 1100.26 227.4C1100.62 227.424 1101 227.424 1101.41 227.4ZM1136.08 222.828C1135.84 220.572 1135.04 218.82 1133.7 217.572C1132.38 216.324 1130.68 215.7 1128.59 215.7C1127.32 215.7 1126.12 215.976 1124.99 216.528C1123.88 217.056 1122.91 217.824 1122.07 218.832C1121.23 219.84 1120.57 221.052 1120.09 222.468C1119.61 223.884 1119.37 225.48 1119.37 227.256C1119.37 229.512 1119.8 231.504 1120.67 233.232C1121.53 234.96 1122.7 236.304 1124.16 237.264C1125.62 238.224 1127.24 238.704 1129.02 238.704C1130.58 238.704 1132.12 238.356 1133.63 237.66C1135.14 236.94 1136.38 235.908 1137.34 234.564L1138.27 235.32C1137.24 236.736 1136.12 237.828 1134.92 238.596C1133.72 239.364 1132.52 239.88 1131.32 240.144C1130.15 240.432 1129.07 240.576 1128.08 240.576C1126.28 240.576 1124.63 240.252 1123.12 239.604C1121.63 238.956 1120.33 238.056 1119.23 236.904C1118.15 235.728 1117.31 234.372 1116.71 232.836C1116.13 231.276 1115.84 229.596 1115.84 227.796C1115.84 226.092 1116.1 224.436 1116.6 222.828C1117.13 221.22 1117.91 219.768 1118.94 218.472C1119.97 217.176 1121.27 216.144 1122.83 215.376C1124.41 214.608 1126.25 214.224 1128.34 214.224C1129.68 214.224 1130.95 214.404 1132.15 214.764C1133.35 215.124 1134.5 215.676 1135.61 216.42L1135.43 214.476H1137.37V222.828H1136.08ZM1140.91 249.756L1140.01 248.928C1140.75 247.944 1141.41 246.9 1141.99 245.796C1142.59 244.716 1143.1 243.588 1143.54 242.412C1143.97 241.26 1144.32 240.06 1144.58 238.812C1144.87 237.564 1145.08 236.292 1145.23 234.996C1145.37 233.676 1145.44 232.344 1145.44 231C1145.44 229.656 1145.37 228.348 1145.23 227.076C1145.08 225.78 1144.87 224.532 1144.58 223.332C1144.32 222.132 1143.97 220.968 1143.54 219.84C1143.1 218.688 1142.59 217.584 1141.99 216.528C1141.41 215.472 1140.75 214.452 1140.01 213.468L1140.91 212.64C1141.8 213.456 1142.72 214.5 1143.68 215.772C1144.64 217.02 1145.53 218.448 1146.34 220.056C1147.16 221.664 1147.82 223.392 1148.32 225.24C1148.83 227.088 1149.08 229.008 1149.08 231C1149.08 232.992 1148.83 234.936 1148.32 236.832C1147.82 238.728 1147.16 240.504 1146.34 242.16C1145.53 243.816 1144.64 245.292 1143.68 246.588C1142.72 247.884 1141.8 248.94 1140.91 249.756ZM1161.77 240V238.812C1162.68 238.764 1163.3 238.56 1163.64 238.2C1163.97 237.816 1164.15 237.3 1164.18 236.652C1164.23 235.98 1164.25 235.224 1164.25 234.384V218.832C1164.25 218.352 1164.26 217.896 1164.29 217.464C1164.31 217.008 1164.33 216.6 1164.36 216.24C1163.93 216.264 1163.49 216.288 1163.06 216.312C1162.63 216.336 1162.2 216.36 1161.77 216.384V214.8C1163.11 214.776 1164.47 214.752 1165.83 214.728C1167.23 214.704 1168.62 214.716 1170.01 214.764C1172.34 214.788 1174.21 215.064 1175.63 215.592C1177.07 216.096 1178.12 216.828 1178.79 217.788C1179.47 218.724 1179.8 219.864 1179.8 221.208C1179.83 222.144 1179.65 223.104 1179.26 224.088C1178.9 225.048 1178.23 225.912 1177.25 226.68C1176.29 227.448 1174.89 228.024 1173.07 228.408C1173.55 228.744 1173.97 229.176 1174.33 229.704C1174.69 230.232 1175.1 230.844 1175.55 231.54L1178 235.392C1178.41 236.04 1178.81 236.628 1179.19 237.156C1179.57 237.66 1180.02 238.068 1180.52 238.38C1181.03 238.668 1181.65 238.812 1182.39 238.812V240H1177.86C1177.16 239.376 1176.57 238.752 1176.09 238.128C1175.64 237.504 1175.16 236.796 1174.65 236.004L1172.24 232.152C1171.93 231.648 1171.57 231.072 1171.16 230.424C1170.78 229.752 1170.33 229.188 1169.83 228.732C1169.45 228.756 1169.04 228.768 1168.61 228.768C1168.2 228.768 1167.79 228.756 1167.38 228.732V235.716C1167.38 236.364 1167.37 236.928 1167.35 237.408C1167.35 237.864 1167.32 238.248 1167.27 238.56C1167.56 238.536 1167.85 238.524 1168.14 238.524C1168.43 238.5 1168.71 238.476 1169 238.452C1169.29 238.428 1169.58 238.416 1169.87 238.416V240H1161.77ZM1169.61 227.4C1170.93 227.352 1172.09 227.136 1173.07 226.752C1174.08 226.368 1174.87 225.756 1175.45 224.916C1176.02 224.076 1176.31 222.972 1176.31 221.604C1176.31 220.692 1176.18 219.9 1175.91 219.228C1175.67 218.532 1175.29 217.956 1174.76 217.5C1174.23 217.044 1173.56 216.708 1172.75 216.492C1171.93 216.252 1170.97 216.132 1169.87 216.132C1168.98 216.132 1168.35 216.312 1167.99 216.672C1167.66 217.032 1167.47 217.536 1167.42 218.184C1167.39 218.808 1167.38 219.552 1167.38 220.416V227.328C1167.77 227.352 1168.13 227.376 1168.46 227.4C1168.82 227.424 1169.21 227.424 1169.61 227.4ZM1192.66 240.576C1190.98 240.576 1189.45 240.192 1188.08 239.424C1186.72 238.632 1185.62 237.552 1184.81 236.184C1184.02 234.792 1183.62 233.208 1183.62 231.432C1183.62 229.536 1184.02 227.832 1184.81 226.32C1185.6 224.808 1186.68 223.62 1188.05 222.756C1189.42 221.868 1190.95 221.424 1192.66 221.424C1194.34 221.424 1195.86 221.832 1197.23 222.648C1198.6 223.44 1199.69 224.52 1200.5 225.888C1201.32 227.256 1201.73 228.816 1201.73 230.568C1201.73 232.416 1201.32 234.108 1200.5 235.644C1199.71 237.156 1198.63 238.356 1197.26 239.244C1195.9 240.132 1194.36 240.576 1192.66 240.576ZM1192.94 239.136C1194.22 239.136 1195.22 238.776 1195.97 238.056C1196.71 237.336 1197.24 236.4 1197.55 235.248C1197.89 234.096 1198.06 232.884 1198.06 231.612C1198.06 230.532 1197.95 229.476 1197.73 228.444C1197.54 227.388 1197.23 226.44 1196.8 225.6C1196.36 224.736 1195.8 224.052 1195.1 223.548C1194.43 223.044 1193.62 222.792 1192.66 222.792C1191.41 222.792 1190.39 223.152 1189.6 223.872C1188.8 224.592 1188.22 225.528 1187.83 226.68C1187.47 227.832 1187.29 229.068 1187.29 230.388C1187.29 231.876 1187.5 233.292 1187.9 234.636C1188.31 235.956 1188.94 237.036 1189.78 237.876C1190.62 238.716 1191.67 239.136 1192.94 239.136ZM1205.94 217.5C1205.94 217.116 1205.94 216.756 1205.94 216.42C1205.96 216.06 1206 215.64 1206.05 215.16C1205.62 215.184 1205.18 215.208 1204.75 215.232C1204.34 215.256 1203.92 215.28 1203.49 215.304V213.792C1204.55 213.792 1205.36 213.744 1205.94 213.648C1206.54 213.552 1206.98 213.432 1207.27 213.288C1207.58 213.144 1207.82 212.988 1207.99 212.82H1209.04V223.548C1209.71 222.876 1210.5 222.36 1211.41 222C1212.35 221.616 1213.37 221.424 1214.47 221.424C1216.01 221.424 1217.39 221.796 1218.61 222.54C1219.86 223.284 1220.84 224.34 1221.56 225.708C1222.28 227.076 1222.64 228.696 1222.64 230.568C1222.64 232.608 1222.2 234.384 1221.31 235.896C1220.42 237.384 1219.27 238.536 1217.86 239.352C1216.44 240.168 1214.92 240.576 1213.28 240.576C1212.47 240.576 1211.57 240.42 1210.58 240.108C1209.62 239.82 1208.76 239.244 1207.99 238.38L1207.13 240H1205.87L1205.94 217.5ZM1209.04 234.348C1209.04 235.62 1209.24 236.604 1209.65 237.3C1210.06 237.972 1210.58 238.44 1211.23 238.704C1211.88 238.968 1212.56 239.1 1213.28 239.1C1214.44 239.1 1215.43 238.776 1216.27 238.128C1217.11 237.48 1217.76 236.592 1218.22 235.464C1218.7 234.312 1218.94 232.98 1218.94 231.468C1218.94 229.836 1218.73 228.408 1218.32 227.184C1217.92 225.936 1217.3 224.964 1216.49 224.268C1215.67 223.548 1214.64 223.188 1213.39 223.188C1212.6 223.188 1211.81 223.38 1211.02 223.764C1210.25 224.124 1209.59 224.616 1209.04 225.24V234.348ZM1234.67 240.576C1232.99 240.576 1231.46 240.192 1230.1 239.424C1228.73 238.632 1227.64 237.552 1226.82 236.184C1226.03 234.792 1225.63 233.208 1225.63 231.432C1225.63 229.536 1226.03 227.832 1226.82 226.32C1227.61 224.808 1228.69 223.62 1230.06 222.756C1231.43 221.868 1232.96 221.424 1234.67 221.424C1236.35 221.424 1237.87 221.832 1239.24 222.648C1240.61 223.44 1241.7 224.52 1242.52 225.888C1243.33 227.256 1243.74 228.816 1243.74 230.568C1243.74 232.416 1243.33 234.108 1242.52 235.644C1241.72 237.156 1240.64 238.356 1239.28 239.244C1237.91 240.132 1236.37 240.576 1234.67 240.576ZM1234.96 239.136C1236.23 239.136 1237.24 238.776 1237.98 238.056C1238.72 237.336 1239.25 236.4 1239.56 235.248C1239.9 234.096 1240.07 232.884 1240.07 231.612C1240.07 230.532 1239.96 229.476 1239.74 228.444C1239.55 227.388 1239.24 226.44 1238.81 225.6C1238.38 224.736 1237.81 224.052 1237.12 223.548C1236.44 223.044 1235.63 222.792 1234.67 222.792C1233.42 222.792 1232.4 223.152 1231.61 223.872C1230.82 224.592 1230.23 225.528 1229.84 226.68C1229.48 227.832 1229.3 229.068 1229.3 230.388C1229.3 231.876 1229.51 233.292 1229.92 234.636C1230.32 235.956 1230.95 237.036 1231.79 237.876C1232.63 238.716 1233.68 239.136 1234.96 239.136ZM1253.57 240.576C1253.01 240.576 1252.45 240.492 1251.87 240.324C1251.3 240.18 1250.76 239.88 1250.25 239.424C1249.77 238.968 1249.39 238.308 1249.1 237.444C1248.81 236.556 1248.67 235.392 1248.67 233.952L1248.74 223.512L1245.97 223.548V222C1246.59 221.976 1247.23 221.748 1247.88 221.316C1248.53 220.86 1249.1 220.248 1249.61 219.48C1250.13 218.712 1250.49 217.872 1250.69 216.96H1251.91V222H1257.96V223.404L1251.91 223.476L1251.84 233.484C1251.84 234.564 1251.92 235.488 1252.09 236.256C1252.28 237 1252.58 237.564 1252.99 237.948C1253.4 238.332 1253.93 238.524 1254.57 238.524C1255.25 238.524 1255.87 238.332 1256.45 237.948C1257.05 237.564 1257.57 237.036 1258.03 236.364L1259 237.156C1258.47 237.948 1257.95 238.572 1257.42 239.028C1256.91 239.484 1256.42 239.82 1255.94 240.036C1255.46 240.276 1255.02 240.42 1254.61 240.468C1254.2 240.54 1253.85 240.576 1253.57 240.576ZM1268.1 240.576C1266.9 240.576 1265.83 240.408 1264.9 240.072C1263.96 239.76 1263.19 239.4 1262.59 238.992L1262.74 240.252H1261.22L1261.01 234.06H1262.12C1262.17 235.044 1262.45 235.932 1262.95 236.724C1263.46 237.492 1264.1 238.092 1264.9 238.524C1265.69 238.956 1266.54 239.172 1267.45 239.172C1268.08 239.172 1268.69 239.076 1269.29 238.884C1269.89 238.668 1270.39 238.356 1270.8 237.948C1271.21 237.516 1271.41 236.976 1271.41 236.328C1271.41 235.656 1271.21 235.104 1270.8 234.672C1270.42 234.216 1269.9 233.82 1269.25 233.484C1268.6 233.148 1267.91 232.836 1267.16 232.548C1266.44 232.26 1265.72 231.96 1265 231.648C1264.28 231.336 1263.61 230.964 1262.99 230.532C1262.39 230.1 1261.91 229.572 1261.55 228.948C1261.19 228.324 1261.01 227.556 1261.01 226.644C1261.01 226.14 1261.1 225.588 1261.3 224.988C1261.49 224.388 1261.81 223.824 1262.27 223.296C1262.72 222.744 1263.35 222.3 1264.14 221.964C1264.93 221.604 1265.94 221.424 1267.16 221.424C1267.81 221.424 1268.53 221.532 1269.32 221.748C1270.12 221.964 1270.88 222.372 1271.63 222.972L1271.56 221.604H1273.07V227.904H1271.92C1271.87 227.064 1271.68 226.26 1271.34 225.492C1271 224.7 1270.51 224.052 1269.86 223.548C1269.22 223.02 1268.38 222.756 1267.34 222.756C1266.24 222.756 1265.38 223.032 1264.75 223.584C1264.13 224.136 1263.82 224.772 1263.82 225.492C1263.82 226.236 1264.04 226.86 1264.5 227.364C1264.98 227.844 1265.59 228.264 1266.34 228.624C1267.08 228.984 1267.87 229.332 1268.71 229.668C1269.62 230.052 1270.51 230.472 1271.38 230.928C1272.24 231.384 1272.95 231.96 1273.5 232.656C1274.05 233.328 1274.33 234.204 1274.33 235.284C1274.33 236.484 1274.02 237.48 1273.39 238.272C1272.79 239.064 1272.01 239.64 1271.05 240C1270.12 240.384 1269.13 240.576 1268.1 240.576ZM1280.19 240.576C1279.64 240.576 1279.15 240.36 1278.72 239.928C1278.31 239.472 1278.1 238.92 1278.1 238.272C1278.1 237.624 1278.32 237.072 1278.75 236.616C1279.18 236.16 1279.68 235.932 1280.23 235.932C1280.83 235.932 1281.32 236.16 1281.7 236.616C1282.11 237.072 1282.32 237.624 1282.32 238.272C1282.32 238.92 1282.1 239.472 1281.67 239.928C1281.24 240.36 1280.74 240.576 1280.19 240.576Z" fill="black"/>
<circle cx="240.5" cy="160.5" r="122.5" fill="#81B29A"/>
<circle cx="218" cy="193" r="83" fill="#525893"/>
<circle cx="198.5" cy="216.5" r="52.5" fill="#E07A5F"/>
</svg>
