<svg width="1584" height="322" viewBox="0 0 1584 322" fill="none" xmlns="http://www.w3.org/2000/svg">
<rect width="1584" height="322" fill="#FFFAEB"/>
<path d="M477.072 158.285H447.336L442.125 170.406C440.841 173.389 440.199 175.617 440.199 177.09C440.199 178.26 440.747 179.299 441.842 180.205C442.975 181.074 445.391 181.64 449.092 181.904V184H424.906V181.904C428.116 181.338 430.193 180.602 431.137 179.695C433.062 177.883 435.196 174.201 437.537 168.65L464.555 105.439H466.537L493.271 169.33C495.424 174.465 497.368 177.807 499.105 179.355C500.88 180.866 503.335 181.715 506.469 181.904V184H476.166V181.904C479.225 181.753 481.283 181.243 482.34 180.375C483.435 179.507 483.982 178.449 483.982 177.203C483.982 175.542 483.227 172.917 481.717 169.33L477.072 158.285ZM475.486 154.094L462.459 123.055L449.092 154.094H475.486ZM526.633 130.588V142.256C530.975 134.477 535.431 130.588 540 130.588C542.077 130.588 543.795 131.23 545.154 132.514C546.514 133.76 547.193 135.214 547.193 136.875C547.193 138.348 546.702 139.594 545.721 140.613C544.739 141.633 543.568 142.143 542.209 142.143C540.887 142.143 539.396 141.501 537.734 140.217C536.111 138.895 534.902 138.234 534.109 138.234C533.43 138.234 532.693 138.612 531.9 139.367C530.201 140.915 528.445 143.464 526.633 147.014V171.879C526.633 174.749 526.992 176.92 527.709 178.393C528.2 179.412 529.068 180.262 530.314 180.941C531.561 181.621 533.354 181.961 535.695 181.961V184H509.131V181.961C511.774 181.961 513.738 181.546 515.021 180.715C515.965 180.111 516.626 179.148 517.004 177.826C517.193 177.184 517.287 175.353 517.287 172.332V152.225C517.287 146.183 517.155 142.596 516.891 141.463C516.664 140.292 516.211 139.443 515.531 138.914C514.889 138.385 514.077 138.121 513.096 138.121C511.925 138.121 510.604 138.404 509.131 138.971L508.564 136.932L524.254 130.588H526.633ZM570.359 136.195V170.293C570.359 175.126 570.888 178.185 571.945 179.469C573.342 181.13 575.212 181.961 577.553 181.961H582.254V184H551.271V181.961H553.594C555.104 181.961 556.482 181.583 557.729 180.828C558.975 180.073 559.824 179.053 560.277 177.77C560.768 176.486 561.014 173.993 561.014 170.293V136.195H550.932V132.117H561.014V128.719C561.014 123.546 561.844 119.165 563.506 115.578C565.167 111.991 567.697 109.102 571.096 106.912C574.532 104.684 578.383 103.57 582.65 103.57C586.615 103.57 590.259 104.854 593.582 107.422C595.772 109.121 596.867 111.028 596.867 113.143C596.867 114.275 596.376 115.352 595.395 116.371C594.413 117.353 593.355 117.844 592.223 117.844C591.354 117.844 590.429 117.542 589.447 116.938C588.503 116.296 587.333 114.955 585.936 112.916C584.538 110.839 583.255 109.442 582.084 108.725C580.913 108.007 579.611 107.648 578.176 107.648C576.439 107.648 574.966 108.12 573.758 109.064C572.549 109.971 571.681 111.406 571.152 113.369C570.624 115.295 570.359 120.298 570.359 128.379V132.117H583.727V136.195H570.359ZM634.193 132.117V163.553C634.193 169.557 634.326 173.238 634.59 174.598C634.892 175.919 635.345 176.844 635.949 177.373C636.591 177.902 637.327 178.166 638.158 178.166C639.329 178.166 640.65 177.845 642.123 177.203L642.916 179.186L627.396 185.586H624.848V174.598C620.392 179.431 616.993 182.471 614.652 183.717C612.311 184.963 609.838 185.586 607.232 185.586C604.325 185.586 601.795 184.755 599.643 183.094C597.528 181.395 596.055 179.223 595.225 176.58C594.394 173.937 593.979 170.199 593.979 165.365V142.199C593.979 139.745 593.714 138.046 593.186 137.102C592.657 136.158 591.864 135.44 590.807 134.949C589.787 134.421 587.918 134.175 585.199 134.213V132.117H603.381V166.838C603.381 171.671 604.212 174.843 605.873 176.354C607.572 177.864 609.611 178.619 611.99 178.619C613.614 178.619 615.445 178.109 617.484 177.09C619.561 176.07 622.016 174.126 624.848 171.256V141.859C624.848 138.914 624.3 136.932 623.205 135.912C622.148 134.855 619.92 134.288 616.521 134.213V132.117H634.193ZM661.891 130.588V142.256C666.233 134.477 670.689 130.588 675.258 130.588C677.335 130.588 679.053 131.23 680.412 132.514C681.771 133.76 682.451 135.214 682.451 136.875C682.451 138.348 681.96 139.594 680.979 140.613C679.997 141.633 678.826 142.143 677.467 142.143C676.145 142.143 674.654 141.501 672.992 140.217C671.368 138.895 670.16 138.234 669.367 138.234C668.688 138.234 667.951 138.612 667.158 139.367C665.459 140.915 663.703 143.464 661.891 147.014V171.879C661.891 174.749 662.249 176.92 662.967 178.393C663.458 179.412 664.326 180.262 665.572 180.941C666.818 181.621 668.612 181.961 670.953 181.961V184H644.389V181.961C647.032 181.961 648.995 181.546 650.279 180.715C651.223 180.111 651.884 179.148 652.262 177.826C652.451 177.184 652.545 175.353 652.545 172.332V152.225C652.545 146.183 652.413 142.596 652.148 141.463C651.922 140.292 651.469 139.443 650.789 138.914C650.147 138.385 649.335 138.121 648.354 138.121C647.183 138.121 645.861 138.404 644.389 138.971L643.822 136.932L659.512 130.588H661.891Z" fill="black"/>
<path d="M423.808 237V235.944C424.448 235.944 424.939 235.773 425.28 235.432C425.621 235.091 425.899 234.621 426.112 234.024C426.347 233.427 426.613 232.733 426.912 231.944L433.504 213.992H434.272L441.408 232.2C441.579 232.648 441.771 233.224 441.984 233.928C442.197 234.632 442.283 235.229 442.24 235.72C442.603 235.699 442.965 235.677 443.328 235.656C443.691 235.635 444.053 235.613 444.416 235.592V237H437.088V235.944C437.899 235.923 438.432 235.741 438.688 235.4C438.944 235.059 439.04 234.653 438.976 234.184C438.912 233.715 438.805 233.288 438.656 232.904L437.536 229.896L429.216 230.088L428.096 233.512C427.947 234.024 427.808 234.429 427.68 234.728C427.573 235.027 427.445 235.357 427.296 235.72C427.723 235.699 428.139 235.677 428.544 235.656C428.971 235.635 429.387 235.613 429.792 235.592V237H423.808ZM429.696 228.712H437.088L434.816 222.6C434.581 221.939 434.336 221.288 434.08 220.648C433.845 219.987 433.611 219.325 433.376 218.664H433.312C433.099 219.261 432.875 219.859 432.64 220.456C432.427 221.053 432.203 221.661 431.968 222.28L429.696 228.712ZM454.198 237V235.944C455.008 235.901 455.563 235.72 455.862 235.4C456.16 235.059 456.32 234.6 456.342 234.024C456.384 233.427 456.406 232.755 456.406 232.008V218.184C456.406 217.757 456.416 217.352 456.438 216.968C456.459 216.563 456.48 216.2 456.502 215.88C456.118 215.901 455.734 215.923 455.35 215.944C454.966 215.965 454.582 215.987 454.198 216.008V214.6C455.392 214.579 456.598 214.557 457.814 214.536C459.051 214.515 460.288 214.525 461.526 214.568C463.595 214.589 465.259 214.835 466.518 215.304C467.798 215.752 468.736 216.403 469.333 217.256C469.931 218.088 470.23 219.101 470.23 220.296C470.251 221.128 470.091 221.981 469.75 222.856C469.43 223.709 468.832 224.477 467.958 225.16C467.104 225.843 465.867 226.355 464.246 226.696C464.672 226.995 465.046 227.379 465.366 227.848C465.686 228.317 466.048 228.861 466.454 229.48L468.63 232.904C468.992 233.48 469.344 234.003 469.686 234.472C470.027 234.92 470.422 235.283 470.87 235.56C471.318 235.816 471.872 235.944 472.534 235.944V237H468.502C467.883 236.445 467.36 235.891 466.934 235.336C466.528 234.781 466.102 234.152 465.654 233.448L463.51 230.024C463.232 229.576 462.912 229.064 462.55 228.488C462.208 227.891 461.814 227.389 461.366 226.984C461.024 227.005 460.662 227.016 460.278 227.016C459.915 227.016 459.552 227.005 459.19 226.984V233.192C459.19 233.768 459.179 234.269 459.158 234.696C459.158 235.101 459.136 235.443 459.094 235.72C459.35 235.699 459.606 235.688 459.862 235.688C460.118 235.667 460.374 235.645 460.63 235.624C460.886 235.603 461.142 235.592 461.398 235.592V237H454.198ZM461.174 225.8C462.347 225.757 463.371 225.565 464.246 225.224C465.142 224.883 465.846 224.339 466.358 223.592C466.87 222.845 467.126 221.864 467.126 220.648C467.126 219.837 467.008 219.133 466.774 218.536C466.56 217.917 466.219 217.405 465.75 217C465.28 216.595 464.683 216.296 463.958 216.104C463.232 215.891 462.379 215.784 461.398 215.784C460.608 215.784 460.054 215.944 459.734 216.264C459.435 216.584 459.264 217.032 459.222 217.608C459.2 218.163 459.19 218.824 459.19 219.592V225.736C459.531 225.757 459.851 225.779 460.15 225.8C460.47 225.821 460.811 225.821 461.174 225.8ZM480.691 237.512C479.539 237.512 478.569 237.299 477.779 236.872C477.011 236.445 476.425 235.72 476.019 234.696C475.635 233.672 475.443 232.285 475.443 230.536V224.84C475.443 224.499 475.443 224.157 475.443 223.816C475.465 223.475 475.507 223.123 475.571 222.76C475.209 222.781 474.835 222.803 474.451 222.824C474.089 222.824 473.726 222.835 473.363 222.856V221.544H474.355C475.273 221.544 475.934 221.459 476.339 221.288C476.766 221.096 477.097 220.893 477.331 220.68H478.259V230.44C478.259 232.275 478.515 233.651 479.027 234.568C479.561 235.464 480.457 235.901 481.715 235.88C482.526 235.859 483.294 235.613 484.019 235.144C484.766 234.653 485.363 234.077 485.811 233.416V225.192C485.811 224.68 485.822 224.243 485.843 223.88C485.865 223.496 485.907 223.123 485.971 222.76C485.587 222.781 485.203 222.803 484.819 222.824C484.435 222.824 484.051 222.835 483.667 222.856V221.544H484.659C485.577 221.544 486.238 221.459 486.643 221.288C487.07 221.096 487.401 220.893 487.635 220.68H488.563L488.531 232.776C488.531 233.117 488.521 233.597 488.499 234.216C488.478 234.835 488.446 235.357 488.403 235.784C488.787 235.763 489.171 235.741 489.555 235.72C489.939 235.699 490.323 235.677 490.707 235.656V237H486.131C486.067 236.637 486.014 236.296 485.971 235.976C485.95 235.656 485.929 235.357 485.907 235.08C485.246 235.741 484.446 236.317 483.507 236.808C482.569 237.277 481.63 237.512 480.691 237.512ZM499.593 237.512C498.526 237.512 497.577 237.363 496.745 237.064C495.913 236.787 495.23 236.467 494.697 236.104L494.825 237.224H493.481L493.289 231.72H494.281C494.324 232.595 494.569 233.384 495.017 234.088C495.465 234.771 496.041 235.304 496.745 235.688C497.449 236.072 498.206 236.264 499.017 236.264C499.572 236.264 500.116 236.179 500.649 236.008C501.182 235.816 501.63 235.539 501.993 235.176C502.356 234.792 502.537 234.312 502.537 233.736C502.537 233.139 502.356 232.648 501.993 232.264C501.652 231.859 501.193 231.507 500.617 231.208C500.041 230.909 499.422 230.632 498.761 230.376C498.121 230.12 497.481 229.853 496.841 229.576C496.201 229.299 495.604 228.968 495.049 228.584C494.516 228.2 494.089 227.731 493.769 227.176C493.449 226.621 493.289 225.939 493.289 225.128C493.289 224.68 493.374 224.189 493.545 223.656C493.716 223.123 494.004 222.621 494.409 222.152C494.814 221.661 495.369 221.267 496.073 220.968C496.777 220.648 497.673 220.488 498.761 220.488C499.337 220.488 499.977 220.584 500.681 220.776C501.385 220.968 502.068 221.331 502.729 221.864L502.665 220.648H504.009V226.248H502.985C502.942 225.501 502.772 224.787 502.473 224.104C502.174 223.4 501.737 222.824 501.161 222.376C500.585 221.907 499.838 221.672 498.921 221.672C497.94 221.672 497.172 221.917 496.617 222.408C496.062 222.899 495.785 223.464 495.785 224.104C495.785 224.765 495.988 225.32 496.393 225.768C496.82 226.195 497.364 226.568 498.025 226.888C498.686 227.208 499.39 227.517 500.137 227.816C500.948 228.157 501.737 228.531 502.505 228.936C503.273 229.341 503.902 229.853 504.393 230.472C504.884 231.069 505.129 231.848 505.129 232.808C505.129 233.875 504.852 234.76 504.297 235.464C503.764 236.168 503.07 236.68 502.217 237C501.385 237.341 500.51 237.512 499.593 237.512ZM513.862 237.512C513.371 237.512 512.87 237.437 512.358 237.288C511.846 237.16 511.366 236.893 510.918 236.488C510.491 236.083 510.15 235.496 509.894 234.728C509.638 233.939 509.51 232.904 509.51 231.624L509.574 222.344L507.11 222.376V221C507.664 220.979 508.23 220.776 508.806 220.392C509.382 219.987 509.894 219.443 510.342 218.76C510.811 218.077 511.131 217.331 511.302 216.52H512.39V221H517.766V222.248L512.39 222.312L512.326 231.208C512.326 232.168 512.4 232.989 512.55 233.672C512.72 234.333 512.987 234.835 513.35 235.176C513.712 235.517 514.182 235.688 514.758 235.688C515.355 235.688 515.91 235.517 516.422 235.176C516.955 234.835 517.424 234.365 517.83 233.768L518.694 234.472C518.224 235.176 517.755 235.731 517.286 236.136C516.838 236.541 516.4 236.84 515.974 237.032C515.547 237.245 515.152 237.373 514.79 237.416C514.427 237.48 514.118 237.512 513.862 237.512ZM528.979 237V235.944C529.789 235.901 530.344 235.72 530.643 235.4C530.941 235.059 531.101 234.6 531.123 234.024C531.165 233.427 531.187 232.755 531.187 232.008V218.184C531.187 217.757 531.197 217.352 531.219 216.968C531.24 216.563 531.261 216.2 531.283 215.88C530.899 215.901 530.515 215.923 530.131 215.944C529.747 215.965 529.363 215.987 528.979 216.008V214.6H543.827L543.987 220.2H542.931C542.931 218.941 542.728 217.992 542.323 217.352C541.917 216.691 541.384 216.253 540.723 216.04C540.061 215.805 539.325 215.699 538.515 215.72L536.179 215.784C535.389 215.805 534.845 215.997 534.547 216.36C534.248 216.701 534.077 217.16 534.035 217.736C533.992 218.312 533.971 218.973 533.971 219.72V225.224L539.539 225.256L539.315 222.472H540.723V229.224H539.699C539.699 228.264 539.56 227.581 539.283 227.176C539.027 226.771 538.621 226.525 538.067 226.44C537.512 226.355 536.787 226.333 535.891 226.376L533.971 226.472V233.192C533.971 233.768 533.96 234.269 533.939 234.696C533.939 235.101 533.917 235.443 533.875 235.72C534.237 235.699 534.6 235.688 534.963 235.688C535.325 235.667 535.688 235.645 536.051 235.624C536.413 235.603 536.776 235.592 537.139 235.592V237H528.979ZM545.846 236.04C546.507 236.04 546.966 235.88 547.222 235.56C547.478 235.219 547.627 234.76 547.67 234.184C547.712 233.587 547.734 232.904 547.734 232.136V224.84C547.734 224.499 547.734 224.157 547.734 223.816C547.755 223.475 547.798 223.123 547.862 222.76C547.478 222.781 547.094 222.803 546.71 222.824C546.347 222.824 545.974 222.835 545.59 222.856V221.544H546.582C547.499 221.544 548.128 221.459 548.47 221.288C548.832 221.096 549.131 220.893 549.366 220.68H550.294C550.336 221.021 550.368 221.448 550.39 221.96C550.411 222.451 550.432 223.08 550.454 223.848C550.774 223.315 551.211 222.792 551.766 222.28C552.32 221.768 552.939 221.341 553.622 221C554.326 220.659 555.062 220.488 555.83 220.488C556.427 220.488 556.95 220.648 557.398 220.968C557.846 221.288 558.07 221.8 558.07 222.504C558.07 222.675 558.016 222.888 557.91 223.144C557.803 223.379 557.632 223.592 557.398 223.784C557.163 223.955 556.854 224.04 556.47 224.04C556 224.019 555.627 223.837 555.35 223.496C555.072 223.133 554.966 222.717 555.03 222.248C554.496 222.227 553.942 222.365 553.366 222.664C552.811 222.963 552.288 223.379 551.798 223.912C551.307 224.424 550.87 225.032 550.486 225.736L550.518 233.608C550.518 234.035 550.507 234.419 550.486 234.76C550.486 235.08 550.454 235.421 550.39 235.784C550.731 235.763 551.062 235.752 551.382 235.752C551.723 235.731 552.064 235.709 552.406 235.688V237H545.846V236.04ZM569.199 237C569.135 236.637 569.092 236.317 569.071 236.04C569.049 235.763 569.017 235.475 568.975 235.176C568.249 235.901 567.46 236.477 566.607 236.904C565.775 237.309 564.889 237.512 563.951 237.512C562.329 237.512 561.124 237.149 560.335 236.424C559.545 235.677 559.151 234.771 559.151 233.704C559.151 232.723 559.449 231.88 560.047 231.176C560.665 230.451 561.455 229.864 562.415 229.416C563.396 228.947 564.452 228.605 565.583 228.392C566.735 228.157 567.844 228.051 568.911 228.072V226.088C568.911 225.341 568.847 224.637 568.719 223.976C568.591 223.315 568.313 222.771 567.887 222.344C567.46 221.917 566.777 221.693 565.839 221.672C565.22 221.651 564.58 221.768 563.919 222.024C563.279 222.28 562.809 222.717 562.511 223.336C562.681 223.507 562.788 223.709 562.831 223.944C562.895 224.157 562.927 224.36 562.927 224.552C562.927 224.808 562.82 225.107 562.607 225.448C562.393 225.768 562.02 225.917 561.487 225.896C561.039 225.896 560.697 225.747 560.463 225.448C560.228 225.128 560.111 224.755 560.111 224.328C560.111 223.603 560.377 222.952 560.911 222.376C561.465 221.8 562.223 221.341 563.183 221C564.143 220.659 565.231 220.488 566.447 220.488C568.239 220.488 569.561 220.968 570.415 221.928C571.268 222.867 571.684 224.36 571.663 226.408C571.663 227.197 571.663 227.997 571.663 228.808C571.663 229.597 571.652 230.397 571.631 231.208C571.631 231.997 571.631 232.797 571.631 233.608C571.631 233.949 571.62 234.291 571.599 234.632C571.577 234.973 571.545 235.357 571.503 235.784C571.887 235.763 572.26 235.741 572.623 235.72C573.007 235.699 573.391 235.677 573.775 235.656V237H569.199ZM568.911 229.16C568.185 229.181 567.417 229.277 566.607 229.448C565.817 229.597 565.081 229.832 564.399 230.152C563.737 230.472 563.193 230.899 562.766 231.432C562.361 231.944 562.169 232.573 562.191 233.32C562.233 234.109 562.489 234.707 562.959 235.112C563.449 235.496 564.025 235.688 564.687 235.688C565.561 235.688 566.319 235.528 566.959 235.208C567.62 234.867 568.271 234.397 568.911 233.8C568.889 233.565 568.879 233.309 568.879 233.032C568.879 232.755 568.879 232.467 568.879 232.168C568.879 232.061 568.879 231.72 568.879 231.144C568.9 230.568 568.911 229.907 568.911 229.16ZM575.971 237V236.04C576.632 236.04 577.091 235.88 577.347 235.56C577.603 235.219 577.752 234.76 577.795 234.184C577.837 233.587 577.859 232.904 577.859 232.136V224.84C577.859 224.499 577.859 224.157 577.859 223.816C577.88 223.475 577.923 223.123 577.987 222.76C577.603 222.781 577.219 222.803 576.835 222.824C576.472 222.845 576.099 222.867 575.715 222.888V221.544C576.653 221.544 577.357 221.501 577.827 221.416C578.317 221.331 578.68 221.224 578.915 221.096C579.149 220.968 579.341 220.829 579.491 220.68H580.419C580.461 220.893 580.483 221.139 580.483 221.416C580.504 221.693 580.525 222.013 580.547 222.376C581.187 221.821 581.923 221.373 582.755 221.032C583.587 220.669 584.419 220.488 585.251 220.488C586.317 220.488 587.213 220.68 587.939 221.064C588.664 221.448 589.229 221.971 589.635 222.632C590.36 222.035 591.192 221.533 592.131 221.128C593.091 220.701 594.029 220.488 594.947 220.488C596.803 220.488 598.168 221.053 599.043 222.184C599.917 223.293 600.333 225.117 600.291 227.656L600.259 233.608C600.259 234.035 600.248 234.419 600.227 234.76C600.227 235.08 600.195 235.421 600.131 235.784C600.472 235.763 600.803 235.752 601.123 235.752C601.464 235.731 601.805 235.709 602.147 235.688V237H595.619V236.04C596.28 236.04 596.739 235.88 596.995 235.56C597.251 235.219 597.4 234.76 597.443 234.184C597.485 233.587 597.507 232.904 597.507 232.136V227.656C597.507 225.821 597.208 224.445 596.611 223.528C596.035 222.611 595.117 222.163 593.859 222.184C593.197 222.184 592.536 222.333 591.875 222.632C591.213 222.931 590.637 223.304 590.147 223.752C590.253 224.093 590.328 224.467 590.371 224.872C590.435 225.256 590.467 225.661 590.467 226.088C590.445 227.325 590.435 228.573 590.435 229.832C590.435 231.091 590.424 232.349 590.403 233.608C590.403 234.035 590.392 234.419 590.371 234.76C590.371 235.08 590.339 235.421 590.275 235.784C590.616 235.763 590.947 235.752 591.267 235.752C591.608 235.731 591.949 235.709 592.291 235.688V237H585.763V236.04C586.424 236.04 586.872 235.88 587.107 235.56C587.363 235.219 587.512 234.76 587.555 234.184C587.619 233.587 587.651 232.904 587.651 232.136L587.683 227.656C587.704 225.821 587.437 224.435 586.883 223.496C586.328 222.557 585.421 222.099 584.163 222.12C583.501 222.12 582.851 222.269 582.211 222.568C581.571 222.845 581.027 223.208 580.579 223.656C580.579 223.912 580.579 224.189 580.579 224.488C580.6 224.765 580.611 225.064 580.611 225.384V233.608C580.611 234.035 580.6 234.419 580.579 234.76C580.579 235.08 580.547 235.421 580.483 235.784C580.824 235.763 581.155 235.752 581.475 235.752C581.816 235.731 582.157 235.709 582.499 235.688V237H575.971ZM612.308 237.512C610.836 237.512 609.503 237.171 608.308 236.488C607.135 235.784 606.207 234.803 605.524 233.544C604.842 232.264 604.5 230.76 604.5 229.032C604.5 227.539 604.831 226.141 605.492 224.84C606.175 223.539 607.124 222.493 608.34 221.704C609.556 220.893 610.964 220.488 612.564 220.488C613.46 220.488 614.292 220.637 615.06 220.936C615.85 221.213 616.543 221.651 617.14 222.248C617.738 222.824 618.207 223.56 618.548 224.456C618.89 225.331 619.06 226.365 619.06 227.56L607.796 227.752C607.796 229.373 607.967 230.803 608.308 232.04C608.671 233.256 609.247 234.205 610.036 234.888C610.826 235.549 611.839 235.88 613.076 235.88C613.738 235.88 614.41 235.763 615.092 235.528C615.796 235.293 616.447 234.973 617.044 234.568C617.642 234.163 618.122 233.715 618.484 233.224L619.252 233.864C618.676 234.76 617.983 235.475 617.172 236.008C616.362 236.541 615.53 236.925 614.676 237.16C613.823 237.395 613.034 237.512 612.308 237.512ZM607.892 226.408H616.052C616.052 225.64 615.935 224.904 615.7 224.2C615.487 223.475 615.124 222.888 614.612 222.44C614.1 221.971 613.428 221.736 612.596 221.736C611.359 221.736 610.324 222.109 609.492 222.856C608.682 223.581 608.148 224.765 607.892 226.408ZM627.287 237.096L623.095 224.808C622.946 224.36 622.807 223.976 622.679 223.656C622.572 223.336 622.487 223.059 622.423 222.824C622.359 222.589 622.306 222.387 622.263 222.216L620.567 222.312V221H627.351V221.96C626.391 221.981 625.858 222.312 625.751 222.952C625.666 223.571 625.794 224.392 626.135 225.416L627.607 229.896C627.778 230.408 627.948 230.931 628.119 231.464C628.29 231.976 628.46 232.488 628.631 233C628.823 232.424 629.015 231.848 629.207 231.272C629.42 230.675 629.623 230.077 629.815 229.48L632.663 221H633.975L637.207 230.312C637.378 230.781 637.548 231.261 637.719 231.752C637.89 232.243 638.06 232.733 638.231 233.224C638.402 232.755 638.562 232.296 638.711 231.848C638.882 231.379 639.042 230.909 639.191 230.44L641.303 224.36C641.452 223.933 641.602 223.528 641.751 223.144C641.9 222.76 642.071 222.451 642.263 222.216L640.407 222.312V221H645.975V221.96C645.42 221.981 644.962 222.056 644.599 222.184C644.258 222.312 643.97 222.483 643.735 222.696C643.5 222.909 643.308 223.165 643.159 223.464C643.01 223.763 642.871 224.104 642.743 224.488L638.135 237.096H636.855L633.815 228.36C633.687 227.976 633.559 227.603 633.431 227.24C633.303 226.856 633.175 226.483 633.047 226.12C632.919 225.736 632.791 225.363 632.663 225C632.535 225.363 632.407 225.736 632.279 226.12C632.151 226.483 632.023 226.856 631.895 227.24C631.767 227.603 631.639 227.976 631.511 228.36L628.503 237.096H627.287ZM654.969 237.512C653.476 237.512 652.121 237.171 650.905 236.488C649.689 235.784 648.718 234.824 647.993 233.608C647.289 232.371 646.937 230.963 646.937 229.384C646.937 227.699 647.289 226.184 647.993 224.84C648.697 223.496 649.657 222.44 650.873 221.672C652.089 220.883 653.454 220.488 654.969 220.488C656.462 220.488 657.817 220.851 659.033 221.576C660.249 222.28 661.22 223.24 661.945 224.456C662.67 225.672 663.033 227.059 663.033 228.616C663.033 230.259 662.67 231.763 661.945 233.128C661.241 234.472 660.281 235.539 659.065 236.328C657.849 237.117 656.484 237.512 654.969 237.512ZM655.225 236.232C656.356 236.232 657.252 235.912 657.913 235.272C658.574 234.632 659.044 233.8 659.321 232.776C659.62 231.752 659.769 230.675 659.769 229.544C659.769 228.584 659.673 227.645 659.481 226.728C659.31 225.789 659.033 224.947 658.649 224.2C658.265 223.432 657.764 222.824 657.145 222.376C656.548 221.928 655.822 221.704 654.969 221.704C653.86 221.704 652.953 222.024 652.249 222.664C651.545 223.304 651.022 224.136 650.681 225.16C650.361 226.184 650.201 227.283 650.201 228.456C650.201 229.779 650.382 231.037 650.745 232.232C651.108 233.405 651.662 234.365 652.409 235.112C653.156 235.859 654.094 236.232 655.225 236.232ZM665.752 236.04C666.413 236.04 666.872 235.88 667.128 235.56C667.384 235.219 667.533 234.76 667.576 234.184C667.618 233.587 667.64 232.904 667.64 232.136V224.84C667.64 224.499 667.64 224.157 667.64 223.816C667.661 223.475 667.704 223.123 667.768 222.76C667.384 222.781 667 222.803 666.616 222.824C666.253 222.824 665.88 222.835 665.496 222.856V221.544H666.488C667.405 221.544 668.034 221.459 668.376 221.288C668.738 221.096 669.037 220.893 669.272 220.68H670.2C670.242 221.021 670.274 221.448 670.296 221.96C670.317 222.451 670.338 223.08 670.36 223.848C670.68 223.315 671.117 222.792 671.672 222.28C672.226 221.768 672.845 221.341 673.528 221C674.232 220.659 674.968 220.488 675.736 220.488C676.333 220.488 676.856 220.648 677.304 220.968C677.752 221.288 677.976 221.8 677.976 222.504C677.976 222.675 677.922 222.888 677.816 223.144C677.709 223.379 677.538 223.592 677.304 223.784C677.069 223.955 676.76 224.04 676.376 224.04C675.906 224.019 675.533 223.837 675.256 223.496C674.978 223.133 674.872 222.717 674.936 222.248C674.402 222.227 673.848 222.365 673.272 222.664C672.717 222.963 672.194 223.379 671.704 223.912C671.213 224.424 670.776 225.032 670.392 225.736L670.424 233.608C670.424 234.035 670.413 234.419 670.392 234.76C670.392 235.08 670.36 235.421 670.296 235.784C670.637 235.763 670.968 235.752 671.288 235.752C671.629 235.731 671.97 235.709 672.312 235.688V237H665.752V236.04ZM679.183 237V236.04C679.844 236.04 680.292 235.88 680.527 235.56C680.783 235.219 680.932 234.76 680.975 234.184C681.017 233.587 681.039 232.904 681.039 232.136L681.071 217C681.071 216.659 681.071 216.339 681.071 216.04C681.092 215.72 681.124 215.347 681.167 214.92C680.783 214.941 680.399 214.963 680.015 214.984C679.652 215.005 679.279 215.027 678.895 215.048V213.704C679.833 213.704 680.559 213.661 681.071 213.576C681.583 213.491 681.967 213.384 682.223 213.256C682.5 213.128 682.713 212.989 682.863 212.84H683.791V227.976H685.071L688.975 223.88C689.337 223.517 689.668 223.197 689.967 222.92C690.265 222.621 690.564 222.376 690.863 222.184L688.687 222.28V221H694.51V221.96C693.785 222.024 693.103 222.259 692.463 222.664C691.844 223.048 691.268 223.485 690.735 223.976C690.223 224.467 689.775 224.915 689.391 225.32L686.895 227.944C687.321 228.136 687.684 228.381 687.983 228.68C688.281 228.979 688.58 229.309 688.879 229.672L691.151 232.584C691.257 232.712 691.439 232.957 691.695 233.32C691.972 233.683 692.292 234.077 692.655 234.504C693.039 234.931 693.433 235.293 693.839 235.592C694.265 235.891 694.66 236.04 695.023 236.04V237H692.111C691.513 237 690.948 236.691 690.415 236.072C689.881 235.453 689.316 234.76 688.719 233.992C688.164 233.224 687.663 232.531 687.215 231.912C686.788 231.272 686.393 230.717 686.031 230.248C685.689 229.779 685.38 229.416 685.103 229.16L683.791 229.224V233.608C683.791 234.035 683.78 234.419 683.759 234.76C683.759 235.08 683.727 235.421 683.663 235.784C684.004 235.763 684.345 235.752 684.687 235.752C685.028 235.731 685.369 235.709 685.711 235.688V237H679.183ZM707.08 220.328C707.08 217.96 707.507 216.093 708.36 214.728C709.235 213.363 710.728 212.68 712.84 212.68C713.31 212.68 713.8 212.765 714.312 212.936C714.846 213.085 715.304 213.341 715.688 213.704C716.072 214.045 716.264 214.493 716.264 215.048C716.264 215.453 716.147 215.795 715.912 216.072C715.699 216.349 715.379 216.488 714.952 216.488C714.44 216.509 714.078 216.36 713.864 216.04C713.672 215.699 713.576 215.411 713.576 215.176C713.576 215.048 713.587 214.92 713.608 214.792C713.63 214.664 713.672 214.525 713.736 214.376C713.587 214.184 713.374 214.045 713.096 213.96C712.84 213.875 712.595 213.832 712.36 213.832C711.699 213.832 711.187 214.024 710.824 214.408C710.462 214.792 710.206 215.272 710.056 215.848C709.907 216.424 709.832 217.021 709.832 217.64V221H714.152V222.248L709.832 222.344L709.864 233.608C709.864 234.035 709.854 234.419 709.832 234.76C709.832 235.08 709.8 235.421 709.736 235.784C710.078 235.763 710.408 235.752 710.728 235.752C711.07 235.731 711.411 235.709 711.752 235.688V237H705.224V236.04C705.886 236.04 706.344 235.88 706.6 235.56C706.856 235.219 707.006 234.76 707.048 234.184C707.091 233.587 707.112 232.904 707.112 232.136L707.08 222.376L704.456 222.44V221H707.08V220.328ZM723.657 237.512C722.163 237.512 720.809 237.171 719.593 236.488C718.377 235.784 717.406 234.824 716.681 233.608C715.977 232.371 715.625 230.963 715.625 229.384C715.625 227.699 715.977 226.184 716.681 224.84C717.385 223.496 718.345 222.44 719.561 221.672C720.777 220.883 722.142 220.488 723.657 220.488C725.15 220.488 726.505 220.851 727.721 221.576C728.937 222.28 729.907 223.24 730.633 224.456C731.358 225.672 731.721 227.059 731.721 228.616C731.721 230.259 731.358 231.763 730.633 233.128C729.929 234.472 728.969 235.539 727.753 236.328C726.537 237.117 725.171 237.512 723.657 237.512ZM723.913 236.232C725.043 236.232 725.939 235.912 726.601 235.272C727.262 234.632 727.731 233.8 728.009 232.776C728.307 231.752 728.457 230.675 728.457 229.544C728.457 228.584 728.361 227.645 728.169 226.728C727.998 225.789 727.721 224.947 727.337 224.2C726.953 223.432 726.451 222.824 725.833 222.376C725.235 221.928 724.51 221.704 723.657 221.704C722.547 221.704 721.641 222.024 720.937 222.664C720.233 223.304 719.71 224.136 719.369 225.16C719.049 226.184 718.889 227.283 718.889 228.456C718.889 229.779 719.07 231.037 719.433 232.232C719.795 233.405 720.35 234.365 721.097 235.112C721.843 235.859 722.782 236.232 723.913 236.232ZM734.439 236.04C735.101 236.04 735.559 235.88 735.815 235.56C736.071 235.219 736.221 234.76 736.263 234.184C736.306 233.587 736.327 232.904 736.327 232.136V224.84C736.327 224.499 736.327 224.157 736.327 223.816C736.349 223.475 736.391 223.123 736.455 222.76C736.071 222.781 735.687 222.803 735.303 222.824C734.941 222.824 734.567 222.835 734.183 222.856V221.544H735.175C736.093 221.544 736.722 221.459 737.063 221.288C737.426 221.096 737.725 220.893 737.959 220.68H738.887C738.93 221.021 738.962 221.448 738.983 221.96C739.005 222.451 739.026 223.08 739.047 223.848C739.367 223.315 739.805 222.792 740.359 222.28C740.914 221.768 741.533 221.341 742.215 221C742.919 220.659 743.655 220.488 744.423 220.488C745.021 220.488 745.543 220.648 745.991 220.968C746.439 221.288 746.663 221.8 746.663 222.504C746.663 222.675 746.61 222.888 746.503 223.144C746.397 223.379 746.226 223.592 745.991 223.784C745.757 223.955 745.447 224.04 745.063 224.04C744.594 224.019 744.221 223.837 743.943 223.496C743.666 223.133 743.559 222.717 743.623 222.248C743.09 222.227 742.535 222.365 741.959 222.664C741.405 222.963 740.882 223.379 740.391 223.912C739.901 224.424 739.463 225.032 739.079 225.736L739.111 233.608C739.111 234.035 739.101 234.419 739.079 234.76C739.079 235.08 739.047 235.421 738.983 235.784C739.325 235.763 739.655 235.752 739.975 235.752C740.317 235.731 740.658 235.709 740.999 235.688V237H734.439V236.04ZM763.441 215.656C762.737 215.656 762.225 215.805 761.905 216.104C761.607 216.403 761.425 216.755 761.361 217.16C761.297 217.544 761.265 217.885 761.265 218.184V226.248C761.265 227.443 761.34 228.605 761.489 229.736C761.66 230.845 761.969 231.848 762.417 232.744C762.865 233.64 763.527 234.355 764.401 234.888C765.297 235.421 766.46 235.688 767.889 235.688C769.425 235.688 770.673 235.325 771.633 234.6C772.615 233.875 773.329 232.872 773.777 231.592C774.247 230.312 774.492 228.84 774.513 227.176L774.609 218.184C774.609 217.757 774.62 217.352 774.641 216.968C774.663 216.563 774.684 216.2 774.705 215.88C774.321 215.901 773.937 215.923 773.553 215.944C773.191 215.965 772.817 215.987 772.433 216.008V214.6H778.385V215.656C777.575 215.677 777.009 215.859 776.689 216.2C776.391 216.541 776.22 217 776.177 217.576C776.156 218.152 776.145 218.824 776.145 219.592L776.081 227.016C776.081 228.403 775.932 229.725 775.633 230.984C775.335 232.243 774.844 233.363 774.161 234.344C773.5 235.325 772.615 236.104 771.505 236.68C770.417 237.235 769.073 237.512 767.473 237.512C765.767 237.512 764.327 237.288 763.153 236.84C762.001 236.392 761.073 235.699 760.369 234.76C759.687 233.821 759.196 232.637 758.897 231.208C758.599 229.779 758.449 228.072 758.449 226.088V219.592C758.449 219.037 758.46 218.387 758.481 217.64C758.524 216.872 758.556 216.285 758.577 215.88C758.193 215.901 757.809 215.923 757.425 215.944C757.041 215.944 756.657 215.955 756.273 215.976V214.6H763.441V215.656ZM780.752 237V236.04C781.413 236.04 781.872 235.88 782.128 235.56C782.384 235.219 782.533 234.76 782.576 234.184C782.618 233.587 782.64 232.904 782.64 232.136L782.672 224.84C782.672 224.499 782.672 224.157 782.672 223.816C782.693 223.475 782.736 223.123 782.8 222.76C782.416 222.781 782.032 222.803 781.648 222.824C781.285 222.845 780.912 222.867 780.528 222.888V221.544C781.466 221.544 782.17 221.501 782.64 221.416C783.13 221.331 783.493 221.224 783.728 221.096C783.962 220.968 784.154 220.829 784.304 220.68H785.232C785.253 220.829 785.264 221 785.264 221.192C785.285 221.384 785.306 221.597 785.328 221.832C785.349 222.067 785.36 222.333 785.36 222.632C785.829 222.227 786.341 221.864 786.896 221.544C787.472 221.224 788.069 220.968 788.688 220.776C789.328 220.584 789.957 220.488 790.576 220.488C792.432 220.488 793.786 221.075 794.64 222.248C795.493 223.4 795.92 225.203 795.92 227.656V233.608C795.92 234.035 795.909 234.419 795.888 234.76C795.888 235.08 795.856 235.421 795.792 235.784C796.133 235.763 796.464 235.752 796.784 235.752C797.125 235.731 797.466 235.709 797.808 235.688V237H791.28V236.04C791.941 236.04 792.4 235.88 792.656 235.56C792.912 235.219 793.061 234.76 793.104 234.184C793.146 233.587 793.168 232.904 793.168 232.136V227.656C793.146 225.821 792.837 224.435 792.24 223.496C791.664 222.557 790.746 222.099 789.488 222.12C788.72 222.141 787.962 222.344 787.216 222.728C786.49 223.112 785.882 223.603 785.392 224.2C785.413 224.371 785.424 224.563 785.424 224.776C785.424 224.989 785.424 225.213 785.424 225.448L785.392 233.608C785.392 234.035 785.381 234.419 785.36 234.76C785.36 235.08 785.328 235.421 785.264 235.784C785.605 235.763 785.936 235.752 786.256 235.752C786.597 235.731 786.938 235.709 787.28 235.688V237H780.752ZM807.997 237.512C806.568 237.512 805.245 237.192 804.029 236.552C802.835 235.891 801.875 234.952 801.149 233.736C800.445 232.499 800.093 231.016 800.093 229.288C800.093 228.179 800.296 227.101 800.701 226.056C801.107 225.011 801.672 224.072 802.397 223.24C803.144 222.387 804.029 221.715 805.053 221.224C806.077 220.733 807.208 220.488 808.445 220.488C809.64 220.488 810.675 220.669 811.549 221.032C812.445 221.395 813.139 221.875 813.629 222.472C814.12 223.069 814.365 223.72 814.365 224.424C814.365 224.893 814.237 225.299 813.981 225.64C813.725 225.96 813.352 226.12 812.861 226.12C812.328 226.141 811.944 225.981 811.709 225.64C811.496 225.277 811.389 224.957 811.389 224.68C811.389 224.467 811.421 224.253 811.485 224.04C811.549 223.805 811.677 223.592 811.869 223.4C811.699 222.888 811.4 222.515 810.973 222.28C810.547 222.024 810.099 221.864 809.629 221.8C809.181 221.715 808.808 221.672 808.509 221.672C807.059 221.672 805.832 222.259 804.829 223.432C803.848 224.584 803.357 226.269 803.357 228.488C803.357 229.917 803.581 231.187 804.029 232.296C804.499 233.405 805.149 234.28 805.981 234.92C806.813 235.539 807.773 235.848 808.861 235.848C809.864 235.848 810.824 235.581 811.741 235.048C812.659 234.515 813.373 233.864 813.885 233.096L814.717 233.736C814.163 234.632 813.491 235.357 812.701 235.912C811.933 236.467 811.133 236.872 810.301 237.128C809.491 237.384 808.723 237.512 807.997 237.512ZM825 237.512C823.507 237.512 822.152 237.171 820.936 236.488C819.72 235.784 818.75 234.824 818.024 233.608C817.32 232.371 816.968 230.963 816.968 229.384C816.968 227.699 817.32 226.184 818.024 224.84C818.728 223.496 819.688 222.44 820.904 221.672C822.12 220.883 823.486 220.488 825 220.488C826.494 220.488 827.848 220.851 829.064 221.576C830.28 222.28 831.251 223.24 831.976 224.456C832.702 225.672 833.064 227.059 833.064 228.616C833.064 230.259 832.702 231.763 831.976 233.128C831.272 234.472 830.312 235.539 829.096 236.328C827.88 237.117 826.515 237.512 825 237.512ZM825.256 236.232C826.387 236.232 827.283 235.912 827.944 235.272C828.606 234.632 829.075 233.8 829.352 232.776C829.651 231.752 829.8 230.675 829.8 229.544C829.8 228.584 829.704 227.645 829.512 226.728C829.342 225.789 829.064 224.947 828.68 224.2C828.296 223.432 827.795 222.824 827.176 222.376C826.579 221.928 825.854 221.704 825 221.704C823.891 221.704 822.984 222.024 822.28 222.664C821.576 223.304 821.054 224.136 820.712 225.16C820.392 226.184 820.232 227.283 820.232 228.456C820.232 229.779 820.414 231.037 820.776 232.232C821.139 233.405 821.694 234.365 822.44 235.112C823.187 235.859 824.126 236.232 825.256 236.232ZM835.783 237V236.04C836.444 236.04 836.903 235.88 837.159 235.56C837.415 235.219 837.564 234.76 837.607 234.184C837.65 233.587 837.671 232.904 837.671 232.136V224.84C837.671 224.499 837.671 224.157 837.671 223.816C837.692 223.475 837.735 223.123 837.799 222.76C837.415 222.781 837.031 222.803 836.647 222.824C836.284 222.845 835.911 222.867 835.527 222.888V221.544C836.466 221.544 837.17 221.501 837.639 221.416C838.13 221.331 838.492 221.224 838.727 221.096C838.962 220.968 839.154 220.829 839.303 220.68H840.231C840.274 220.893 840.295 221.139 840.295 221.416C840.316 221.693 840.338 222.013 840.359 222.376C840.999 221.821 841.735 221.373 842.567 221.032C843.399 220.669 844.231 220.488 845.063 220.488C846.13 220.488 847.026 220.68 847.751 221.064C848.476 221.448 849.042 221.971 849.447 222.632C850.172 222.035 851.004 221.533 851.943 221.128C852.903 220.701 853.842 220.488 854.759 220.488C856.615 220.488 857.98 221.053 858.855 222.184C859.73 223.293 860.146 225.117 860.103 227.656L860.071 233.608C860.071 234.035 860.06 234.419 860.039 234.76C860.039 235.08 860.007 235.421 859.943 235.784C860.284 235.763 860.615 235.752 860.935 235.752C861.276 235.731 861.618 235.709 861.959 235.688V237H855.431V236.04C856.092 236.04 856.551 235.88 856.807 235.56C857.063 235.219 857.212 234.76 857.255 234.184C857.298 233.587 857.319 232.904 857.319 232.136V227.656C857.319 225.821 857.02 224.445 856.423 223.528C855.847 222.611 854.93 222.163 853.671 222.184C853.01 222.184 852.348 222.333 851.687 222.632C851.026 222.931 850.45 223.304 849.959 223.752C850.066 224.093 850.14 224.467 850.183 224.872C850.247 225.256 850.279 225.661 850.279 226.088C850.258 227.325 850.247 228.573 850.247 229.832C850.247 231.091 850.236 232.349 850.215 233.608C850.215 234.035 850.204 234.419 850.183 234.76C850.183 235.08 850.151 235.421 850.087 235.784C850.428 235.763 850.759 235.752 851.079 235.752C851.42 235.731 851.762 235.709 852.103 235.688V237H845.575V236.04C846.236 236.04 846.684 235.88 846.919 235.56C847.175 235.219 847.324 234.76 847.367 234.184C847.431 233.587 847.463 232.904 847.463 232.136L847.495 227.656C847.516 225.821 847.25 224.435 846.695 223.496C846.14 222.557 845.234 222.099 843.975 222.12C843.314 222.12 842.663 222.269 842.023 222.568C841.383 222.845 840.839 223.208 840.391 223.656C840.391 223.912 840.391 224.189 840.391 224.488C840.412 224.765 840.423 225.064 840.423 225.384V233.608C840.423 234.035 840.412 234.419 840.391 234.76C840.391 235.08 840.359 235.421 840.295 235.784C840.636 235.763 840.967 235.752 841.287 235.752C841.628 235.731 841.97 235.709 842.311 235.688V237H835.783ZM864.089 245.16V244.2C864.75 244.2 865.209 244.029 865.465 243.688C865.721 243.368 865.87 242.909 865.913 242.312C865.955 241.736 865.977 241.064 865.977 240.296L866.041 224.84C866.041 224.499 866.041 224.157 866.041 223.816C866.062 223.475 866.105 223.123 866.169 222.76C865.785 222.781 865.401 222.803 865.017 222.824C864.654 222.845 864.281 222.867 863.897 222.888V221.544C864.835 221.544 865.539 221.501 866.009 221.416C866.499 221.331 866.851 221.224 867.065 221.096C867.299 220.968 867.491 220.829 867.641 220.68H868.601C868.622 220.893 868.643 221.149 868.665 221.448C868.686 221.725 868.707 222.045 868.729 222.408C869.369 221.832 870.126 221.373 871.001 221.032C871.897 220.669 872.793 220.488 873.689 220.488C874.926 220.488 876.078 220.808 877.145 221.448C878.211 222.088 879.075 223.005 879.737 224.2C880.398 225.373 880.729 226.781 880.729 228.424C880.729 230.237 880.345 231.827 879.577 233.192C878.83 234.557 877.838 235.624 876.601 236.392C875.363 237.139 874.019 237.512 872.569 237.512C871.822 237.512 871.129 237.416 870.489 237.224C869.87 237.053 869.283 236.797 868.729 236.456V241.768C868.729 242.195 868.718 242.568 868.697 242.888C868.697 243.229 868.665 243.581 868.601 243.944C868.942 243.923 869.273 243.901 869.593 243.88C869.934 243.88 870.275 243.869 870.617 243.848V245.16H864.089ZM872.505 236.232C873.529 236.232 874.403 235.923 875.129 235.304C875.875 234.664 876.441 233.8 876.825 232.712C877.23 231.603 877.433 230.344 877.433 228.936C877.433 227.784 877.262 226.685 876.921 225.64C876.601 224.573 876.078 223.709 875.353 223.048C874.649 222.387 873.71 222.056 872.537 222.056C871.811 222.056 871.107 222.237 870.425 222.6C869.763 222.941 869.209 223.357 868.761 223.848C868.761 223.933 868.761 224.061 868.761 224.232C868.782 224.381 868.793 224.659 868.793 225.064C868.793 225.448 868.793 226.035 868.793 226.824C868.793 227.592 868.782 228.637 868.761 229.96C868.761 231.283 868.761 232.957 868.761 234.984C869.294 235.389 869.87 235.699 870.489 235.912C871.129 236.125 871.801 236.232 872.505 236.232ZM883.151 236.04C883.812 236.04 884.271 235.88 884.527 235.56C884.783 235.219 884.932 234.76 884.975 234.184C885.017 233.587 885.039 232.904 885.039 232.136V217C885.039 216.659 885.039 216.339 885.039 216.04C885.06 215.72 885.092 215.347 885.135 214.92C884.751 214.941 884.367 214.963 883.983 214.984C883.62 215.005 883.247 215.027 882.863 215.048V213.704C883.801 213.704 884.527 213.661 885.039 213.576C885.572 213.491 885.967 213.384 886.223 213.256C886.5 213.128 886.713 212.989 886.863 212.84H887.791L887.823 233.608C887.823 234.035 887.812 234.419 887.791 234.76C887.769 235.08 887.727 235.421 887.663 235.784C888.004 235.763 888.335 235.752 888.655 235.752C888.996 235.731 889.337 235.709 889.679 235.688V237H883.151V236.04ZM892.189 236.04C892.851 236.04 893.309 235.88 893.565 235.56C893.821 235.219 893.971 234.76 894.013 234.184C894.056 233.587 894.077 232.904 894.077 232.136V224.84C894.077 224.499 894.088 224.179 894.109 223.88C894.131 223.56 894.163 223.187 894.205 222.76C893.821 222.781 893.437 222.803 893.053 222.824C892.691 222.845 892.317 222.867 891.933 222.888V221.544C892.872 221.544 893.597 221.501 894.109 221.416C894.621 221.331 895.005 221.224 895.261 221.096C895.539 220.968 895.752 220.829 895.901 220.68H896.829V233.608C896.829 234.035 896.819 234.419 896.797 234.76C896.797 235.08 896.765 235.421 896.701 235.784C897.043 235.763 897.373 235.752 897.693 235.752C898.035 235.731 898.376 235.709 898.717 235.688V237H892.189V236.04ZM895.293 217.512C894.845 217.512 894.451 217.331 894.109 216.968C893.768 216.605 893.597 216.157 893.597 215.624C893.597 215.091 893.768 214.643 894.109 214.28C894.472 213.896 894.877 213.704 895.325 213.704C895.816 213.704 896.221 213.896 896.541 214.28C896.883 214.643 897.053 215.091 897.053 215.624C897.053 216.157 896.872 216.605 896.509 216.968C896.168 217.331 895.763 217.512 895.293 217.512ZM908.997 237.512C907.568 237.512 906.245 237.192 905.029 236.552C903.835 235.891 902.875 234.952 902.149 233.736C901.445 232.499 901.093 231.016 901.093 229.288C901.093 228.179 901.296 227.101 901.701 226.056C902.107 225.011 902.672 224.072 903.397 223.24C904.144 222.387 905.029 221.715 906.053 221.224C907.077 220.733 908.208 220.488 909.445 220.488C910.64 220.488 911.675 220.669 912.549 221.032C913.445 221.395 914.139 221.875 914.629 222.472C915.12 223.069 915.365 223.72 915.365 224.424C915.365 224.893 915.237 225.299 914.981 225.64C914.725 225.96 914.352 226.12 913.861 226.12C913.328 226.141 912.944 225.981 912.709 225.64C912.496 225.277 912.389 224.957 912.389 224.68C912.389 224.467 912.421 224.253 912.485 224.04C912.549 223.805 912.677 223.592 912.869 223.4C912.699 222.888 912.4 222.515 911.973 222.28C911.547 222.024 911.099 221.864 910.629 221.8C910.181 221.715 909.808 221.672 909.509 221.672C908.059 221.672 906.832 222.259 905.829 223.432C904.848 224.584 904.357 226.269 904.357 228.488C904.357 229.917 904.581 231.187 905.029 232.296C905.499 233.405 906.149 234.28 906.981 234.92C907.813 235.539 908.773 235.848 909.861 235.848C910.864 235.848 911.824 235.581 912.741 235.048C913.659 234.515 914.373 233.864 914.885 233.096L915.717 233.736C915.163 234.632 914.491 235.357 913.701 235.912C912.933 236.467 912.133 236.872 911.301 237.128C910.491 237.384 909.723 237.512 908.997 237.512ZM927.886 237C927.822 236.637 927.779 236.317 927.758 236.04C927.737 235.763 927.705 235.475 927.662 235.176C926.937 235.901 926.147 236.477 925.294 236.904C924.462 237.309 923.577 237.512 922.638 237.512C921.017 237.512 919.811 237.149 919.022 236.424C918.233 235.677 917.838 234.771 917.838 233.704C917.838 232.723 918.137 231.88 918.734 231.176C919.353 230.451 920.142 229.864 921.102 229.416C922.083 228.947 923.139 228.605 924.27 228.392C925.422 228.157 926.531 228.051 927.598 228.072V226.088C927.598 225.341 927.534 224.637 927.406 223.976C927.278 223.315 927.001 222.771 926.574 222.344C926.147 221.917 925.465 221.693 924.526 221.672C923.907 221.651 923.267 221.768 922.606 222.024C921.966 222.28 921.497 222.717 921.198 223.336C921.369 223.507 921.475 223.709 921.518 223.944C921.582 224.157 921.614 224.36 921.614 224.552C921.614 224.808 921.507 225.107 921.294 225.448C921.081 225.768 920.707 225.917 920.174 225.896C919.726 225.896 919.385 225.747 919.15 225.448C918.915 225.128 918.798 224.755 918.798 224.328C918.798 223.603 919.065 222.952 919.598 222.376C920.153 221.8 920.91 221.341 921.87 221C922.83 220.659 923.918 220.488 925.134 220.488C926.926 220.488 928.249 220.968 929.102 221.928C929.955 222.867 930.371 224.36 930.35 226.408C930.35 227.197 930.35 227.997 930.35 228.808C930.35 229.597 930.339 230.397 930.318 231.208C930.318 231.997 930.318 232.797 930.318 233.608C930.318 233.949 930.307 234.291 930.286 234.632C930.265 234.973 930.233 235.357 930.19 235.784C930.574 235.763 930.947 235.741 931.31 235.72C931.694 235.699 932.078 235.677 932.462 235.656V237H927.886ZM927.598 229.16C926.873 229.181 926.105 229.277 925.294 229.448C924.505 229.597 923.769 229.832 923.086 230.152C922.425 230.472 921.881 230.899 921.454 231.432C921.049 231.944 920.857 232.573 920.878 233.32C920.921 234.109 921.177 234.707 921.646 235.112C922.137 235.496 922.713 235.688 923.374 235.688C924.249 235.688 925.006 235.528 925.646 235.208C926.307 234.867 926.958 234.397 927.598 233.8C927.577 233.565 927.566 233.309 927.566 233.032C927.566 232.755 927.566 232.467 927.566 232.168C927.566 232.061 927.566 231.72 927.566 231.144C927.587 230.568 927.598 229.907 927.598 229.16ZM940.455 237.512C939.965 237.512 939.463 237.437 938.951 237.288C938.439 237.16 937.959 236.893 937.511 236.488C937.085 236.083 936.743 235.496 936.487 234.728C936.231 233.939 936.103 232.904 936.103 231.624L936.167 222.344L933.703 222.376V221C934.258 220.979 934.823 220.776 935.399 220.392C935.975 219.987 936.487 219.443 936.935 218.76C937.405 218.077 937.725 217.331 937.895 216.52H938.983V221H944.359V222.248L938.983 222.312L938.919 231.208C938.919 232.168 938.994 232.989 939.143 233.672C939.314 234.333 939.581 234.835 939.943 235.176C940.306 235.517 940.775 235.688 941.351 235.688C941.949 235.688 942.503 235.517 943.015 235.176C943.549 234.835 944.018 234.365 944.423 233.768L945.287 234.472C944.818 235.176 944.349 235.731 943.879 236.136C943.431 236.541 942.994 236.84 942.567 237.032C942.141 237.245 941.746 237.373 941.383 237.416C941.021 237.48 940.711 237.512 940.455 237.512ZM954.558 237.512C953.086 237.512 951.753 237.171 950.558 236.488C949.385 235.784 948.457 234.803 947.774 233.544C947.092 232.264 946.75 230.76 946.75 229.032C946.75 227.539 947.081 226.141 947.742 224.84C948.425 223.539 949.374 222.493 950.59 221.704C951.806 220.893 953.214 220.488 954.814 220.488C955.71 220.488 956.542 220.637 957.31 220.936C958.1 221.213 958.793 221.651 959.39 222.248C959.988 222.824 960.457 223.56 960.798 224.456C961.14 225.331 961.31 226.365 961.31 227.56L950.046 227.752C950.046 229.373 950.217 230.803 950.558 232.04C950.921 233.256 951.497 234.205 952.286 234.888C953.076 235.549 954.089 235.88 955.326 235.88C955.988 235.88 956.66 235.763 957.342 235.528C958.046 235.293 958.697 234.973 959.294 234.568C959.892 234.163 960.372 233.715 960.734 233.224L961.502 233.864C960.926 234.76 960.233 235.475 959.422 236.008C958.612 236.541 957.78 236.925 956.926 237.16C956.073 237.395 955.284 237.512 954.558 237.512ZM950.142 226.408H958.302C958.302 225.64 958.185 224.904 957.95 224.2C957.737 223.475 957.374 222.888 956.862 222.44C956.35 221.971 955.678 221.736 954.846 221.736C953.609 221.736 952.574 222.109 951.742 222.856C950.932 223.581 950.398 224.765 950.142 226.408ZM970.85 237.512C969.548 237.512 968.375 237.192 967.33 236.552C966.284 235.891 965.452 234.952 964.834 233.736C964.236 232.52 963.938 231.091 963.938 229.448C963.938 227.699 964.29 226.152 964.994 224.808C965.698 223.464 966.668 222.408 967.906 221.64C969.164 220.872 970.583 220.488 972.162 220.488C972.866 220.488 973.559 220.584 974.242 220.776C974.946 220.947 975.5 221.149 975.906 221.384V217C975.906 216.659 975.906 216.339 975.906 216.04C975.927 215.72 975.959 215.347 976.002 214.92C975.618 214.941 975.234 214.963 974.85 214.984C974.487 215.005 974.114 215.027 973.73 215.048V213.704C974.668 213.704 975.394 213.661 975.906 213.576C976.418 213.491 976.802 213.384 977.058 213.256C977.335 213.128 977.548 212.989 977.698 212.84H978.626V233.608C978.626 233.949 978.615 234.291 978.594 234.632C978.572 234.973 978.54 235.357 978.498 235.784C978.882 235.763 979.255 235.741 979.618 235.72C980.002 235.699 980.386 235.677 980.77 235.656V237H976.194C976.13 236.68 976.076 236.392 976.034 236.136C976.012 235.859 975.991 235.592 975.97 235.336C975.372 235.997 974.636 236.531 973.762 236.936C972.887 237.32 971.916 237.512 970.85 237.512ZM972.002 235.944C972.706 235.944 973.41 235.741 974.114 235.336C974.839 234.931 975.436 234.429 975.906 233.832C975.884 233.576 975.874 233.309 975.874 233.032C975.874 232.733 975.874 232.413 975.874 232.072L975.906 222.856C975.394 222.472 974.828 222.195 974.21 222.024C973.612 221.832 972.994 221.736 972.354 221.736C971.287 221.736 970.359 222.045 969.57 222.664C968.78 223.283 968.183 224.147 967.778 225.256C967.372 226.365 967.191 227.667 967.234 229.16C967.276 230.461 967.479 231.624 967.842 232.648C968.226 233.672 968.759 234.483 969.442 235.08C970.146 235.656 970.999 235.944 972.002 235.944ZM998.541 212.68L999.341 213.416C998.68 214.291 998.082 215.219 997.549 216.2C997.037 217.16 996.589 218.163 996.205 219.208C995.821 220.232 995.501 221.299 995.245 222.408C995.01 223.517 994.829 224.659 994.701 225.832C994.573 226.984 994.509 228.157 994.509 229.352C994.509 230.547 994.573 231.72 994.701 232.872C994.829 234.003 995.01 235.101 995.245 236.168C995.501 237.235 995.821 238.269 996.205 239.272C996.589 240.296 997.037 241.277 997.549 242.216C998.082 243.155 998.68 244.061 999.341 244.936L998.541 245.672C997.752 244.947 996.93 244.019 996.077 242.888C995.224 241.779 994.434 240.509 993.709 239.08C992.984 237.651 992.397 236.115 991.949 234.472C991.501 232.829 991.277 231.123 991.277 229.352C991.277 227.581 991.501 225.853 991.949 224.168C992.397 222.483 992.984 220.904 993.709 219.432C994.434 217.96 995.224 216.648 996.077 215.496C996.93 214.344 997.752 213.405 998.541 212.68ZM1001.64 237V235.944C1002.45 235.901 1003 235.72 1003.3 235.4C1003.6 235.059 1003.76 234.6 1003.78 234.024C1003.82 233.427 1003.84 232.755 1003.84 232.008V218.184C1003.84 217.757 1003.85 217.352 1003.88 216.968C1003.9 216.563 1003.92 216.2 1003.94 215.88C1003.56 215.901 1003.17 215.923 1002.79 215.944C1002.4 215.965 1002.02 215.987 1001.64 216.008V214.6H1016.48L1016.64 220.2H1015.59C1015.59 218.941 1015.38 217.992 1014.98 217.352C1014.57 216.691 1014.04 216.253 1013.38 216.04C1012.72 215.805 1011.98 215.699 1011.17 215.72L1008.84 215.784C1008.05 215.805 1007.5 215.997 1007.2 216.36C1006.9 216.701 1006.73 217.16 1006.69 217.736C1006.65 218.312 1006.63 218.973 1006.63 219.72V225.224L1012.2 225.256L1011.97 222.472H1013.38V229.224H1012.36C1012.36 228.264 1012.22 227.581 1011.94 227.176C1011.68 226.771 1011.28 226.525 1010.72 226.44C1010.17 226.355 1009.44 226.333 1008.55 226.376L1006.63 226.472V233.192C1006.63 233.768 1006.62 234.269 1006.6 234.696C1006.6 235.101 1006.57 235.443 1006.53 235.72C1006.89 235.699 1007.26 235.688 1007.62 235.688C1007.98 235.667 1008.34 235.645 1008.71 235.624C1009.07 235.603 1009.43 235.592 1009.8 235.592V237H1001.64ZM1019.17 237V235.944C1019.98 235.901 1020.53 235.72 1020.83 235.4C1021.13 235.059 1021.29 234.6 1021.31 234.024C1021.35 233.427 1021.37 232.755 1021.37 232.008V218.184C1021.37 217.757 1021.38 217.352 1021.41 216.968C1021.43 216.563 1021.45 216.2 1021.47 215.88C1021.09 215.901 1020.7 215.923 1020.32 215.944C1019.93 215.965 1019.55 215.987 1019.17 216.008V214.6C1020.36 214.579 1021.57 214.557 1022.78 214.536C1024.02 214.515 1025.26 214.525 1026.49 214.568C1028.56 214.589 1030.23 214.835 1031.49 215.304C1032.77 215.752 1033.7 216.403 1034.3 217.256C1034.9 218.088 1035.2 219.101 1035.2 220.296C1035.22 221.128 1035.06 221.981 1034.72 222.856C1034.4 223.709 1033.8 224.477 1032.93 225.16C1032.07 225.843 1030.84 226.355 1029.21 226.696C1029.64 226.995 1030.01 227.379 1030.33 227.848C1030.65 228.317 1031.02 228.861 1031.42 229.48L1033.6 232.904C1033.96 233.48 1034.31 234.003 1034.65 234.472C1035 234.92 1035.39 235.283 1035.84 235.56C1036.29 235.816 1036.84 235.944 1037.5 235.944V237H1033.47C1032.85 236.445 1032.33 235.891 1031.9 235.336C1031.5 234.781 1031.07 234.152 1030.62 233.448L1028.48 230.024C1028.2 229.576 1027.88 229.064 1027.52 228.488C1027.18 227.891 1026.78 227.389 1026.33 226.984C1025.99 227.005 1025.63 227.016 1025.25 227.016C1024.88 227.016 1024.52 227.005 1024.16 226.984V233.192C1024.16 233.768 1024.15 234.269 1024.13 234.696C1024.13 235.101 1024.1 235.443 1024.06 235.72C1024.32 235.699 1024.57 235.688 1024.83 235.688C1025.09 235.667 1025.34 235.645 1025.6 235.624C1025.85 235.603 1026.11 235.592 1026.37 235.592V237H1019.17ZM1026.14 225.8C1027.32 225.757 1028.34 225.565 1029.21 225.224C1030.11 224.883 1030.81 224.339 1031.33 223.592C1031.84 222.845 1032.09 221.864 1032.09 220.648C1032.09 219.837 1031.98 219.133 1031.74 218.536C1031.53 217.917 1031.19 217.405 1030.72 217C1030.25 216.595 1029.65 216.296 1028.93 216.104C1028.2 215.891 1027.35 215.784 1026.37 215.784C1025.58 215.784 1025.02 215.944 1024.7 216.264C1024.4 216.584 1024.23 217.032 1024.19 217.608C1024.17 218.163 1024.16 218.824 1024.16 219.592V225.736C1024.5 225.757 1024.82 225.779 1025.12 225.8C1025.44 225.821 1025.78 225.821 1026.14 225.8ZM1056.96 221.736C1056.74 219.731 1056.04 218.173 1054.84 217.064C1053.67 215.955 1052.16 215.4 1050.3 215.4C1049.17 215.4 1048.1 215.645 1047.1 216.136C1046.12 216.605 1045.25 217.288 1044.51 218.184C1043.76 219.08 1043.17 220.157 1042.75 221.416C1042.32 222.675 1042.11 224.093 1042.11 225.672C1042.11 227.677 1042.49 229.448 1043.26 230.984C1044.03 232.52 1045.06 233.715 1046.36 234.568C1047.67 235.421 1049.11 235.848 1050.68 235.848C1052.07 235.848 1053.44 235.539 1054.78 234.92C1056.12 234.28 1057.22 233.363 1058.08 232.168L1058.91 232.84C1057.99 234.099 1057 235.069 1055.93 235.752C1054.87 236.435 1053.8 236.893 1052.73 237.128C1051.69 237.384 1050.73 237.512 1049.85 237.512C1048.25 237.512 1046.78 237.224 1045.44 236.648C1044.11 236.072 1042.96 235.272 1041.98 234.248C1041.02 233.203 1040.27 231.997 1039.74 230.632C1039.23 229.245 1038.97 227.752 1038.97 226.152C1038.97 224.637 1039.2 223.165 1039.64 221.736C1040.11 220.307 1040.81 219.016 1041.72 217.864C1042.64 216.712 1043.79 215.795 1045.18 215.112C1046.59 214.429 1048.22 214.088 1050.08 214.088C1051.27 214.088 1052.4 214.248 1053.47 214.568C1054.53 214.888 1055.56 215.379 1056.54 216.04L1056.38 214.312H1058.11V221.736H1056.96ZM1061.25 245.672L1060.45 244.936C1061.11 244.061 1061.7 243.133 1062.21 242.152C1062.74 241.192 1063.2 240.189 1063.59 239.144C1063.97 238.12 1064.28 237.053 1064.52 235.944C1064.77 234.835 1064.96 233.704 1065.09 232.552C1065.22 231.379 1065.28 230.195 1065.28 229C1065.28 227.805 1065.22 226.643 1065.09 225.512C1064.96 224.36 1064.77 223.251 1064.52 222.184C1064.28 221.117 1063.97 220.083 1063.59 219.08C1063.2 218.056 1062.74 217.075 1062.21 216.136C1061.7 215.197 1061.11 214.291 1060.45 213.416L1061.25 212.68C1062.04 213.405 1062.86 214.333 1063.72 215.464C1064.57 216.573 1065.36 217.843 1066.08 219.272C1066.81 220.701 1067.4 222.237 1067.84 223.88C1068.29 225.523 1068.52 227.229 1068.52 229C1068.52 230.771 1068.29 232.499 1067.84 234.184C1067.4 235.869 1066.81 237.448 1066.08 238.92C1065.36 240.392 1064.57 241.704 1063.72 242.856C1062.86 244.008 1062.04 244.947 1061.25 245.672ZM1079.79 237V235.944C1080.6 235.901 1081.16 235.72 1081.46 235.4C1081.75 235.059 1081.91 234.6 1081.94 234.024C1081.98 233.427 1082 232.755 1082 232.008V218.184C1082 217.757 1082.01 217.352 1082.03 216.968C1082.05 216.563 1082.07 216.2 1082.1 215.88C1081.71 215.901 1081.33 215.923 1080.94 215.944C1080.56 215.965 1080.18 215.987 1079.79 216.008V214.6C1080.99 214.579 1082.19 214.557 1083.41 214.536C1084.64 214.515 1085.88 214.525 1087.12 214.568C1089.19 214.589 1090.85 214.835 1092.11 215.304C1093.39 215.752 1094.33 216.403 1094.93 217.256C1095.52 218.088 1095.82 219.101 1095.82 220.296C1095.84 221.128 1095.68 221.981 1095.34 222.856C1095.02 223.709 1094.43 224.477 1093.55 225.16C1092.7 225.843 1091.46 226.355 1089.84 226.696C1090.27 226.995 1090.64 227.379 1090.96 227.848C1091.28 228.317 1091.64 228.861 1092.05 229.48L1094.22 232.904C1094.59 233.48 1094.94 234.003 1095.28 234.472C1095.62 234.92 1096.02 235.283 1096.46 235.56C1096.91 235.816 1097.47 235.944 1098.13 235.944V237H1094.1C1093.48 236.445 1092.95 235.891 1092.53 235.336C1092.12 234.781 1091.7 234.152 1091.25 233.448L1089.1 230.024C1088.83 229.576 1088.51 229.064 1088.14 228.488C1087.8 227.891 1087.41 227.389 1086.96 226.984C1086.62 227.005 1086.26 227.016 1085.87 227.016C1085.51 227.016 1085.15 227.005 1084.78 226.984V233.192C1084.78 233.768 1084.77 234.269 1084.75 234.696C1084.75 235.101 1084.73 235.443 1084.69 235.72C1084.94 235.699 1085.2 235.688 1085.46 235.688C1085.71 235.667 1085.97 235.645 1086.22 235.624C1086.48 235.603 1086.74 235.592 1086.99 235.592V237H1079.79ZM1086.77 225.8C1087.94 225.757 1088.96 225.565 1089.84 225.224C1090.74 224.883 1091.44 224.339 1091.95 223.592C1092.46 222.845 1092.72 221.864 1092.72 220.648C1092.72 219.837 1092.6 219.133 1092.37 218.536C1092.15 217.917 1091.81 217.405 1091.34 217C1090.87 216.595 1090.28 216.296 1089.55 216.104C1088.83 215.891 1087.97 215.784 1086.99 215.784C1086.2 215.784 1085.65 215.944 1085.33 216.264C1085.03 216.584 1084.86 217.032 1084.82 217.608C1084.79 218.163 1084.78 218.824 1084.78 219.592V225.736C1085.12 225.757 1085.44 225.779 1085.74 225.8C1086.06 225.821 1086.4 225.821 1086.77 225.8ZM1107.25 237.512C1105.76 237.512 1104.4 237.171 1103.19 236.488C1101.97 235.784 1101 234.824 1100.27 233.608C1099.57 232.371 1099.22 230.963 1099.22 229.384C1099.22 227.699 1099.57 226.184 1100.27 224.84C1100.98 223.496 1101.94 222.44 1103.15 221.672C1104.37 220.883 1105.74 220.488 1107.25 220.488C1108.74 220.488 1110.1 220.851 1111.31 221.576C1112.53 222.28 1113.5 223.24 1114.23 224.456C1114.95 225.672 1115.31 227.059 1115.31 228.616C1115.31 230.259 1114.95 231.763 1114.23 233.128C1113.52 234.472 1112.56 235.539 1111.35 236.328C1110.13 237.117 1108.76 237.512 1107.25 237.512ZM1107.51 236.232C1108.64 236.232 1109.53 235.912 1110.19 235.272C1110.86 234.632 1111.32 233.8 1111.6 232.776C1111.9 231.752 1112.05 230.675 1112.05 229.544C1112.05 228.584 1111.95 227.645 1111.76 226.728C1111.59 225.789 1111.31 224.947 1110.93 224.2C1110.55 223.432 1110.04 222.824 1109.43 222.376C1108.83 221.928 1108.1 221.704 1107.25 221.704C1106.14 221.704 1105.23 222.024 1104.53 222.664C1103.83 223.304 1103.3 224.136 1102.96 225.16C1102.64 226.184 1102.48 227.283 1102.48 228.456C1102.48 229.779 1102.66 231.037 1103.03 232.232C1103.39 233.405 1103.94 234.365 1104.69 235.112C1105.44 235.859 1106.38 236.232 1107.51 236.232ZM1119.06 217C1119.06 216.659 1119.06 216.339 1119.06 216.04C1119.08 215.72 1119.11 215.347 1119.15 214.92C1118.77 214.941 1118.39 214.963 1118 214.984C1117.64 215.005 1117.27 215.027 1116.88 215.048V213.704C1117.82 213.704 1118.55 213.661 1119.06 213.576C1119.59 213.491 1119.99 213.384 1120.24 213.256C1120.52 213.128 1120.73 212.989 1120.88 212.84H1121.81V222.376C1122.41 221.779 1123.11 221.32 1123.92 221C1124.75 220.659 1125.66 220.488 1126.64 220.488C1128.01 220.488 1129.23 220.819 1130.32 221.48C1131.43 222.141 1132.31 223.08 1132.95 224.296C1133.59 225.512 1133.91 226.952 1133.91 228.616C1133.91 230.429 1133.51 232.008 1132.72 233.352C1131.93 234.675 1130.91 235.699 1129.65 236.424C1128.39 237.149 1127.04 237.512 1125.59 237.512C1124.86 237.512 1124.06 237.373 1123.19 237.096C1122.33 236.84 1121.56 236.328 1120.88 235.56L1120.11 237H1118.99L1119.06 217ZM1121.81 231.976C1121.81 233.107 1121.99 233.981 1122.35 234.6C1122.72 235.197 1123.19 235.613 1123.76 235.848C1124.34 236.083 1124.95 236.2 1125.59 236.2C1126.61 236.2 1127.49 235.912 1128.24 235.336C1128.99 234.76 1129.56 233.971 1129.97 232.968C1130.4 231.944 1130.61 230.76 1130.61 229.416C1130.61 227.965 1130.43 226.696 1130.07 225.608C1129.7 224.499 1129.16 223.635 1128.43 223.016C1127.71 222.376 1126.79 222.056 1125.68 222.056C1124.98 222.056 1124.27 222.227 1123.57 222.568C1122.89 222.888 1122.3 223.325 1121.81 223.88V231.976ZM1144.59 237.512C1143.1 237.512 1141.75 237.171 1140.53 236.488C1139.31 235.784 1138.34 234.824 1137.62 233.608C1136.91 232.371 1136.56 230.963 1136.56 229.384C1136.56 227.699 1136.91 226.184 1137.62 224.84C1138.32 223.496 1139.28 222.44 1140.5 221.672C1141.71 220.883 1143.08 220.488 1144.59 220.488C1146.09 220.488 1147.44 220.851 1148.66 221.576C1149.87 222.28 1150.84 223.24 1151.57 224.456C1152.3 225.672 1152.66 227.059 1152.66 228.616C1152.66 230.259 1152.3 231.763 1151.57 233.128C1150.87 234.472 1149.91 235.539 1148.69 236.328C1147.47 237.117 1146.11 237.512 1144.59 237.512ZM1144.85 236.232C1145.98 236.232 1146.88 235.912 1147.54 235.272C1148.2 234.632 1148.67 233.8 1148.95 232.776C1149.24 231.752 1149.39 230.675 1149.39 229.544C1149.39 228.584 1149.3 227.645 1149.11 226.728C1148.94 225.789 1148.66 224.947 1148.27 224.2C1147.89 223.432 1147.39 222.824 1146.77 222.376C1146.17 221.928 1145.45 221.704 1144.59 221.704C1143.48 221.704 1142.58 222.024 1141.87 222.664C1141.17 223.304 1140.65 224.136 1140.31 225.16C1139.99 226.184 1139.83 227.283 1139.83 228.456C1139.83 229.779 1140.01 231.037 1140.37 232.232C1140.73 233.405 1141.29 234.365 1142.03 235.112C1142.78 235.859 1143.72 236.232 1144.85 236.232ZM1161.39 237.512C1160.9 237.512 1160.4 237.437 1159.89 237.288C1159.38 237.16 1158.9 236.893 1158.45 236.488C1158.02 236.083 1157.68 235.496 1157.42 234.728C1157.17 233.939 1157.04 232.904 1157.04 231.624L1157.1 222.344L1154.64 222.376V221C1155.2 220.979 1155.76 220.776 1156.34 220.392C1156.91 219.987 1157.42 219.443 1157.87 218.76C1158.34 218.077 1158.66 217.331 1158.83 216.52H1159.92V221H1165.3V222.248L1159.92 222.312L1159.86 231.208C1159.86 232.168 1159.93 232.989 1160.08 233.672C1160.25 234.333 1160.52 234.835 1160.88 235.176C1161.24 235.517 1161.71 235.688 1162.29 235.688C1162.89 235.688 1163.44 235.517 1163.95 235.176C1164.49 234.835 1164.96 234.365 1165.36 233.768L1166.22 234.472C1165.76 235.176 1165.29 235.731 1164.82 236.136C1164.37 236.541 1163.93 236.84 1163.5 237.032C1163.08 237.245 1162.68 237.373 1162.32 237.416C1161.96 237.48 1161.65 237.512 1161.39 237.512ZM1174.31 237.512C1173.25 237.512 1172.3 237.363 1171.46 237.064C1170.63 236.787 1169.95 236.467 1169.42 236.104L1169.54 237.224H1168.2L1168.01 231.72H1169C1169.04 232.595 1169.29 233.384 1169.74 234.088C1170.18 234.771 1170.76 235.304 1171.46 235.688C1172.17 236.072 1172.93 236.264 1173.74 236.264C1174.29 236.264 1174.83 236.179 1175.37 236.008C1175.9 235.816 1176.35 235.539 1176.71 235.176C1177.07 234.792 1177.26 234.312 1177.26 233.736C1177.26 233.139 1177.07 232.648 1176.71 232.264C1176.37 231.859 1175.91 231.507 1175.34 231.208C1174.76 230.909 1174.14 230.632 1173.48 230.376C1172.84 230.12 1172.2 229.853 1171.56 229.576C1170.92 229.299 1170.32 228.968 1169.77 228.584C1169.23 228.2 1168.81 227.731 1168.49 227.176C1168.17 226.621 1168.01 225.939 1168.01 225.128C1168.01 224.68 1168.09 224.189 1168.26 223.656C1168.43 223.123 1168.72 222.621 1169.13 222.152C1169.53 221.661 1170.09 221.267 1170.79 220.968C1171.5 220.648 1172.39 220.488 1173.48 220.488C1174.06 220.488 1174.7 220.584 1175.4 220.776C1176.1 220.968 1176.79 221.331 1177.45 221.864L1177.38 220.648H1178.73V226.248H1177.7C1177.66 225.501 1177.49 224.787 1177.19 224.104C1176.89 223.4 1176.46 222.824 1175.88 222.376C1175.3 221.907 1174.56 221.672 1173.64 221.672C1172.66 221.672 1171.89 221.917 1171.34 222.408C1170.78 222.899 1170.5 223.464 1170.5 224.104C1170.5 224.765 1170.71 225.32 1171.11 225.768C1171.54 226.195 1172.08 226.568 1172.74 226.888C1173.41 227.208 1174.11 227.517 1174.86 227.816C1175.67 228.157 1176.46 228.531 1177.22 228.936C1177.99 229.341 1178.62 229.853 1179.11 230.472C1179.6 231.069 1179.85 231.848 1179.85 232.808C1179.85 233.875 1179.57 234.76 1179.02 235.464C1178.48 236.168 1177.79 236.68 1176.94 237C1176.1 237.341 1175.23 237.512 1174.31 237.512ZM1185.06 237.512C1184.57 237.512 1184.13 237.32 1183.75 236.936C1183.39 236.531 1183.2 236.04 1183.2 235.464C1183.2 234.888 1183.4 234.397 1183.78 233.992C1184.16 233.587 1184.6 233.384 1185.09 233.384C1185.63 233.384 1186.06 233.587 1186.4 233.992C1186.77 234.397 1186.95 234.888 1186.95 235.464C1186.95 236.04 1186.76 236.531 1186.37 236.936C1185.99 237.32 1185.55 237.512 1185.06 237.512Z" fill="black"/>
<circle cx="240.5" cy="160.5" r="122.5" fill="#81B29A"/>
<circle cx="218" cy="193" r="83" fill="#525893"/>
<circle cx="198.5" cy="216.5" r="52.5" fill="#E07A5F"/>
</svg>
